<?xml version="1.0" encoding="utf-8"?>
<!-- Generator: Adobe Illustrator 23.0.1, SVG Export Plug-In . SVG Version: 6.00 Build 0)  -->
<svg version="1.1" id="圖層_1" xmlns="http://www.w3.org/2000/svg" xmlns:xlink="http://www.w3.org/1999/xlink" x="0px" y="0px"
	 viewBox="0 0 200 250" style="enable-background:new 0 0 200 250;" xml:space="preserve">
<style type="text/css">
	.st0{fill:#8F8F8F;}
	.st1{fill:#444047;}
	.st2{fill:#E0E0E0;}
	.st3{fill:#F7F7F7;}
	.st4{clip-path:url(#SVGID_2_);fill:#EFEFEF;}
	.st5{clip-path:url(#SVGID_2_);}
	.st6{fill:#FFFFFF;}
	.st7{fill:#E2E2E2;}
	.st8{fill:#CECECE;}
	.st9{fill:none;stroke:#FFFFFF;stroke-miterlimit:10;}
	.st10{fill:url(#SVGID_3_);}
	.st11{clip-path:url(#SVGID_5_);fill:url(#SVGID_6_);}
	.st12{clip-path:url(#SVGID_5_);fill:#FFFFFF;}
	.st13{clip-path:url(#SVGID_5_);fill:url(#SVGID_7_);}
	.st14{clip-path:url(#SVGID_5_);}
	.st15{fill:#C4C4C4;}
	.st16{stroke:#FFFFFF;stroke-width:0.7804;stroke-miterlimit:10;}
	.st17{fill:#F9E0AF;stroke:#FFFFFF;stroke-width:0.7804;stroke-miterlimit:10;}
	.st18{fill:#E2C89A;stroke:#FFFFFF;stroke-width:0.7804;stroke-miterlimit:10;}
	.st19{fill:#FFFFFF;stroke:#FFFFFF;stroke-width:0.7804;stroke-miterlimit:10;}
	.st20{fill:#F9E0AF;}
	.st21{fill:#E2C89A;}
	.st22{fill:#E8E8E8;}
	.st23{fill:#E2E3E7;stroke:#FFFFFF;stroke-width:0.886;stroke-miterlimit:10;}
	.st24{fill:#D487D8;}
	.st25{fill:#F9E0AF;stroke:#FFFFFF;stroke-width:0.886;stroke-miterlimit:10;}
	.st26{fill:#FFFFFF;stroke:#FFFFFF;stroke-width:0.886;stroke-miterlimit:10;}
	.st27{clip-path:url(#SVGID_5_);fill:none;stroke:#AAAAAA;stroke-miterlimit:10;}
	.st28{clip-path:url(#SVGID_5_);fill:#E2E2E2;}
	.st29{clip-path:url(#SVGID_5_);fill:none;stroke:#FFFFFF;stroke-miterlimit:10;}
	.st30{fill:url(#SVGID_8_);}
	.st31{fill:none;stroke:#51C9D6;stroke-width:1.2;stroke-miterlimit:10;}
	.st32{fill:#FFFFFF;stroke:#D85092;stroke-miterlimit:10;}
	.st33{fill:url(#SVGID_9_);}
	.st34{fill:#41B5B0;}
	.st35{fill:#2A3B49;}
	.st36{fill:#F2F2F2;}
	.st37{fill:none;stroke:#41B5B0;stroke-width:3;stroke-linecap:round;stroke-miterlimit:10;}
	.st38{fill:#3DA39B;stroke:#FFFFFF;stroke-width:2;stroke-linecap:round;stroke-linejoin:round;stroke-miterlimit:10;}
	.st39{fill:#44BAB4;stroke:#FFFFFF;stroke-width:2;stroke-linecap:round;stroke-linejoin:round;stroke-miterlimit:10;}
	.st40{stroke:#FFFFFF;stroke-width:2;stroke-miterlimit:10;}
	.st41{fill:#BFA882;}
	.st42{fill:#A358A5;}
	.st43{fill:#2D776E;stroke:#FFFFFF;stroke-width:2;stroke-miterlimit:10;}
	.st44{fill:#F9E0AF;stroke:#FFFFFF;stroke-width:2;stroke-miterlimit:10;}
	.st45{fill:#E2C89A;stroke:#FFFFFF;stroke-width:2;stroke-miterlimit:10;}
	.st46{fill:#348C83;stroke:#FFFFFF;stroke-width:2;stroke-miterlimit:10;}
	.st47{fill:url(#SVGID_10_);}
	.st48{fill:url(#SVGID_11_);}
	.st49{fill:#E2E3E7;stroke:#FFFFFF;stroke-width:2;stroke-miterlimit:10;}
	.st50{fill:#44BAB4;stroke:#FFFFFF;stroke-width:2;stroke-miterlimit:10;}
	.st51{fill:#FEFEFE;stroke:#FFFFFF;stroke-width:2;stroke-miterlimit:10;}
	.st52{fill:#FFFFFF;stroke:#FFFFFF;stroke-width:2;stroke-miterlimit:10;}
	.st53{fill:url(#SVGID_12_);stroke:#FFFFFF;stroke-width:2;stroke-miterlimit:10;}
	.st54{fill:url(#SVGID_13_);stroke:#FFFFFF;stroke-width:2;stroke-miterlimit:10;}
	.st55{fill:none;stroke:#D85092;stroke-miterlimit:10;}
	.st56{fill:#77B3D4;}
	.st57{opacity:0.2;}
	.st58{fill:#231F20;}
	.st59{fill:#C75C5C;}
	.st60{fill:#4F5D73;}
	.st61{fill:#E0E0D1;}
	.st62{fill:#FF7D00;}
	.st63{fill:#59616A;}
	.st64{fill:#A8B6C0;}
	.st65{fill:#9DADB8;}
	.st66{fill:#B3BFC8;}
	.st67{fill:#E4E8EB;}
	.st68{fill:#BEC8D0;}
	.st69{fill:#C8D1D7;}
	.st70{fill:#FF50CE;}
	.st71{opacity:0.3;}
	.st72{fill:none;}
	.st73{fill:#010101;}
	.st74{fill:#FECD0E;}
	.st75{fill:#FCF7E8;}
	.st76{opacity:0.73;}
	.st77{clip-path:url(#SVGID_15_);fill:url(#SVGID_16_);}
	.st78{clip-path:url(#SVGID_18_);fill:url(#SVGID_19_);}
	.st79{opacity:0.7;}
	.st80{clip-path:url(#SVGID_21_);fill:url(#SVGID_22_);}
	.st81{fill:#FFE48D;}
	.st82{clip-path:url(#SVGID_24_);fill:url(#SVGID_25_);}
	.st83{clip-path:url(#SVGID_27_);fill:url(#SVGID_28_);}
	.st84{clip-path:url(#SVGID_30_);fill:url(#SVGID_31_);}
	.st85{fill:#DEB3E2;}
	.st86{fill:#EFEAF4;}
	.st87{fill:#F3CC1B;}
	.st88{fill:#757575;}
	.st89{fill:#C9A50D;}
	.st90{clip-path:url(#SVGID_33_);fill:url(#SVGID_34_);}
	.st91{fill:none;stroke:#BABABA;stroke-width:6.7359;stroke-miterlimit:10;}
	.st92{clip-path:url(#SVGID_36_);fill:url(#SVGID_37_);}
	.st93{clip-path:url(#SVGID_39_);fill:url(#SVGID_40_);}
	.st94{clip-path:url(#SVGID_42_);fill:url(#SVGID_43_);}
	.st95{fill:url(#SVGID_44_);}
	.st96{opacity:0.55;fill:url(#SVGID_45_);}
	.st97{fill:#E6E6E6;}
	.st98{fill:#FFB8B8;}
	.st99{fill:#575A89;}
	.st100{fill:#2F2E41;}
	.st101{fill:#CFCCE0;}
	.st102{opacity:0.2;enable-background:new    ;}
	.st103{fill:#A0616A;}
	.st104{fill:#95CE9B;}
	.st105{fill:#CCCCCC;}
	.st106{fill:#F27092;}
	.st107{opacity:0.1;fill:#A358A5;enable-background:new    ;}
	.st108{opacity:0.1;}
	.st109{opacity:0.55;fill:url(#SVGID_46_);}
	.st110{fill:#3F3D56;}
	.st111{opacity:0.8;fill:#FA5959;enable-background:new    ;}
	.st112{opacity:0.8;fill:#FED253;enable-background:new    ;}
	.st113{opacity:0.8;fill:#8CCF4D;enable-background:new    ;}
	.st114{opacity:0.2;fill:#A358A5;enable-background:new    ;}
	.st115{fill:none;stroke:#3F3D56;stroke-width:0.3162;stroke-miterlimit:10;}
	.st116{opacity:0.1;enable-background:new    ;}
	.st117{fill:#46455B;}
	.st118{fill:#A8A8A8;}
	.st119{fill:url(#SVGID_47_);}
	.st120{fill:#65617D;}
	.st121{opacity:5.000000e-02;enable-background:new    ;}
	.st122{fill:#EE8E9E;}
	.st123{fill:#E3E8F4;}
	.st124{fill:#E6E8EC;}
	.st125{fill:#565387;}
	.st126{clip-path:url(#SVGID_49_);fill:#EFEFEF;}
	.st127{clip-path:url(#SVGID_49_);}
	.st128{fill:none;stroke:#FFFFFF;stroke-width:2.139;stroke-miterlimit:10;}
	.st129{fill:#F4E49F;}
	.st130{fill:#FFFFFF;stroke:#AFAFAF;stroke-width:0.6706;stroke-miterlimit:10;}
	.st131{fill:#80D5E8;}
	.st132{fill:#CCF9FF;}
	.st133{fill:#F5F9FC;}
	.st134{fill:#BDEAF2;}
	.st135{fill:#BD87D6;}
	.st136{clip-path:url(#SVGID_51_);fill:url(#SVGID_52_);}
	.st137{clip-path:url(#SVGID_54_);fill:url(#SVGID_55_);}
	.st138{clip-path:url(#SVGID_57_);fill:url(#SVGID_58_);}
	.st139{clip-path:url(#SVGID_60_);fill:url(#SVGID_61_);}
	.st140{clip-path:url(#SVGID_63_);fill:url(#SVGID_64_);}
	.st141{clip-path:url(#SVGID_66_);fill:url(#SVGID_67_);}
	.st142{clip-path:url(#SVGID_69_);fill:url(#SVGID_70_);}
	.st143{clip-path:url(#SVGID_72_);fill:url(#SVGID_73_);}
	.st144{clip-path:url(#SVGID_75_);fill:url(#SVGID_76_);}
	.st145{clip-path:url(#SVGID_78_);fill:url(#SVGID_79_);}
	.st146{fill:url(#SVGID_80_);}
	.st147{opacity:0.55;fill:url(#SVGID_81_);}
	.st148{opacity:0.55;fill:url(#SVGID_82_);}
	.st149{fill:url(#SVGID_83_);}
	.st150{clip-path:url(#SVGID_85_);fill:url(#SVGID_86_);}
	.st151{clip-path:url(#SVGID_85_);fill:url(#SVGID_87_);}
	.st152{clip-path:url(#SVGID_85_);fill:#FFFFFF;}
	.st153{clip-path:url(#SVGID_85_);fill:none;}
	.st154{clip-path:url(#SVGID_85_);fill:#BD87D6;}
	.st155{clip-path:url(#SVGID_85_);}
	.st156{fill:none;stroke:#E8C82A;stroke-width:7.1192;stroke-miterlimit:10;}
	.st157{fill:#F478BC;}
	.st158{fill:#F4A6D4;}
	.st159{clip-path:url(#SVGID_85_);fill:none;stroke:#AAAAAA;stroke-width:2.1388;stroke-miterlimit:10;}
	.st160{clip-path:url(#SVGID_85_);fill:#A8B6C0;}
	.st161{clip-path:url(#SVGID_85_);fill:#80D5E8;}
	.st162{clip-path:url(#SVGID_85_);fill:#CCF9FF;}
	.st163{clip-path:url(#SVGID_85_);fill:#F5F9FC;}
	.st164{clip-path:url(#SVGID_85_);fill:#BDEAF2;}
	.st165{fill:#FFFFFF;stroke:#AFAFAF;stroke-width:0.6727;stroke-miterlimit:10;}
	.st166{clip-path:url(#SVGID_89_);fill:url(#SVGID_90_);}
	.st167{clip-path:url(#SVGID_89_);fill:url(#SVGID_91_);}
	.st168{clip-path:url(#SVGID_89_);fill:#FFFFFF;}
	.st169{clip-path:url(#SVGID_89_);fill:none;}
	.st170{clip-path:url(#SVGID_89_);fill:#BD87D6;}
	.st171{clip-path:url(#SVGID_89_);}
	.st172{fill:none;stroke:#E8C82A;stroke-width:7.1418;stroke-miterlimit:10;}
	
		.st173{clip-path:url(#SVGID_89_);fill:none;stroke:#AAAAAA;stroke-width:2.1458;stroke-linecap:round;stroke-linejoin:round;stroke-miterlimit:10;}
	.st174{clip-path:url(#SVGID_89_);fill:#A8B6C0;}
	.st175{clip-path:url(#SVGID_89_);fill:#80D5E8;}
	.st176{clip-path:url(#SVGID_89_);fill:#CCF9FF;}
	.st177{clip-path:url(#SVGID_89_);fill:#F5F9FC;}
	.st178{clip-path:url(#SVGID_89_);fill:#BDEAF2;}
	.st179{clip-path:url(#SVGID_93_);fill:#EFEFEF;}
	.st180{clip-path:url(#SVGID_93_);}
	.st181{fill:none;stroke:#FFFFFF;stroke-width:2.1458;stroke-miterlimit:10;}
	.st182{clip-path:url(#SVGID_95_);fill:#EFEFEF;}
	.st183{clip-path:url(#SVGID_95_);}
	.st184{clip-path:url(#SVGID_97_);fill:url(#SVGID_98_);}
	.st185{clip-path:url(#SVGID_97_);fill:url(#SVGID_99_);}
	.st186{clip-path:url(#SVGID_97_);fill:#FFFFFF;}
	.st187{clip-path:url(#SVGID_97_);fill:none;}
	.st188{clip-path:url(#SVGID_97_);fill:#BD87D6;}
	.st189{clip-path:url(#SVGID_97_);}
	
		.st190{clip-path:url(#SVGID_97_);fill:none;stroke:#AAAAAA;stroke-width:2.1458;stroke-linecap:round;stroke-linejoin:round;stroke-miterlimit:10;}
	.st191{clip-path:url(#SVGID_97_);fill:#A8B6C0;}
	.st192{clip-path:url(#SVGID_97_);fill:#80D5E8;}
	.st193{clip-path:url(#SVGID_97_);fill:#CCF9FF;}
	.st194{clip-path:url(#SVGID_97_);fill:#F5F9FC;}
	.st195{clip-path:url(#SVGID_97_);fill:#BDEAF2;}
	.st196{fill:none;stroke:#FFFFFF;stroke-width:1.7208;stroke-linecap:round;stroke-linejoin:round;stroke-miterlimit:10;}
</style>
<g>
	<polygon class="st36" points="0,0 0,215.9 192.5,215.9 192.5,38.7 154.4,0.6 	"/>
	<polygon class="st105" points="154.4,0.6 154.4,39.2 192.5,39.2 	"/>
	<path class="st87" d="M160.2,223.6c-1.2-1.2-0.6-0.8-3.4-1.6c-1.3-0.3-2.4-1-3.4-1.8l-6.1,15c-0.6,1.4,0.5,3,2.1,3l7.1-0.3l4.9,5.1
		c1.1,1.1,3,0.8,3.6-0.7l7-17.2c-1.5,0.8-3.1,1.3-4.8,1.3C164.6,226.4,162.1,225.4,160.2,223.6z M198.7,235.1l-6.1-15
		c-1,0.8-2.1,1.4-3.4,1.8c-2.8,0.8-2.2,0.4-3.4,1.6c-1.9,1.9-4.3,2.9-6.9,2.9c-1.7,0-3.3-0.5-4.8-1.3l7,17.2
		c0.6,1.4,2.5,1.8,3.6,0.7l4.9-5.1l7.1,0.3C198.2,238.2,199.3,236.6,198.7,235.1z M182.6,220.5c2.1-2.1,2.3-1.9,5.2-2.7
		c1.9-0.5,3.3-2,3.8-3.9c1-3.8,0.7-3.4,3.5-6.2c1.4-1.4,1.9-3.4,1.4-5.3c-1-3.8-1-3.3,0-7.1c0.5-1.9,0-3.9-1.4-5.3
		c-2.7-2.8-2.5-2.3-3.5-6.2c-0.5-1.9-2-3.4-3.8-3.9c-3.8-1-3.3-0.8-6-3.6c-1.4-1.4-3.4-1.9-5.2-1.4c-3.7,1-3.2,1-7,0
		c-1.9-0.5-3.9,0-5.2,1.4c-2.7,2.8-2.3,2.5-6,3.6c-1.9,0.5-3.3,2-3.8,3.9c-1,3.8-0.7,3.4-3.5,6.2c-1.4,1.4-1.9,3.4-1.4,5.3
		c1,3.8,1,3.3,0,7.1c-0.5,1.9,0,3.9,1.4,5.3c2.7,2.8,2.5,2.3,3.5,6.2c0.5,1.9,2,3.4,3.8,3.9c3,0.8,3.2,0.7,5.2,2.7
		c1.8,1.8,4.6,2.1,6.7,0.8c1.7-1.1,4-1.1,5.7,0C178,222.6,180.8,222.3,182.6,220.5z M182.6,220.5c2.1-2.1,2.3-1.9,5.2-2.7
		c1.9-0.5,3.3-2,3.8-3.9c1-3.8,0.7-3.4,3.5-6.2c1.4-1.4,1.9-3.4,1.4-5.3c-1-3.8-1-3.3,0-7.1c0.5-1.9,0-3.9-1.4-5.3
		c-2.7-2.8-2.5-2.3-3.5-6.2c-0.5-1.9-2-3.4-3.8-3.9c-3.8-1-3.3-0.8-6-3.6c-1.4-1.4-3.4-1.9-5.2-1.4c-3.7,1-3.2,1-7,0
		c-1.9-0.5-3.9,0-5.2,1.4c-2.7,2.8-2.3,2.5-6,3.6c-1.9,0.5-3.3,2-3.8,3.9c-1,3.8-0.7,3.4-3.5,6.2c-1.4,1.4-1.9,3.4-1.4,5.3
		c1,3.8,1,3.3,0,7.1c-0.5,1.9,0,3.9,1.4,5.3c2.7,2.8,2.5,2.3,3.5,6.2c0.5,1.9,2,3.4,3.8,3.9c3,0.8,3.2,0.7,5.2,2.7
		c1.8,1.8,4.6,2.1,6.7,0.8c1.7-1.1,4-1.1,5.7,0C178,222.6,180.8,222.3,182.6,220.5z M160.4,199.8c-0.8-7.1,4.2-13.5,11.2-14.2
		c7-0.8,13.2,4.4,14,11.4c0.8,7.1-4.2,13.5-11.2,14.2C167.5,212.1,161.2,206.9,160.4,199.8L160.4,199.8z"/>
	<path class="st106" d="M182.6,220.5c2.1-2.1,2.3-1.9,5.2-2.7c1.9-0.5,3.3-2,3.8-3.9c1-3.8,0.7-3.4,3.5-6.2c1.4-1.4,1.9-3.4,1.4-5.3
		c-1-3.8-1-3.3,0-7.1c0.5-1.9,0-3.9-1.4-5.3c-2.7-2.8-2.5-2.3-3.5-6.2c-0.5-1.9-2-3.4-3.8-3.9c-3.8-1-3.3-0.8-6-3.6
		c-1.4-1.4-3.4-1.9-5.2-1.4c-3.7,1-3.2,1-7,0c-1.9-0.5-3.9,0-5.2,1.4c-2.7,2.8-2.3,2.5-6,3.6c-1.9,0.5-3.3,2-3.8,3.9
		c-1,3.8-0.7,3.4-3.5,6.2c-1.4,1.4-1.9,3.4-1.4,5.3c1,3.8,1,3.3,0,7.1c-0.5,1.9,0,3.9,1.4,5.3c2.7,2.8,2.5,2.3,3.5,6.2
		c0.5,1.9,2,3.4,3.8,3.9c3,0.8,3.2,0.7,5.2,2.7c1.8,1.8,4.6,2.1,6.7,0.8c1.7-1.1,4-1.1,5.7,0C178,222.6,180.8,222.3,182.6,220.5z"/>
	<path class="st6" d="M160.4,199.8c-0.8-7.1,4.2-13.5,11.2-14.2c7-0.8,13.2,4.4,14,11.4c0.8,7.1-4.2,13.5-11.2,14.2
		C167.5,212.1,161.2,206.9,160.4,199.8L160.4,199.8z"/>
</g>
</svg>
