<?xml version="1.0" encoding="utf-8"?>
<!-- Generator: Adobe Illustrator 23.0.1, SVG Export Plug-In . SVG Version: 6.00 Build 0)  -->
<svg version="1.1" id="圖層_1" xmlns="http://www.w3.org/2000/svg" xmlns:xlink="http://www.w3.org/1999/xlink" x="0px" y="0px"
	 viewBox="0 0 260 260" style="enable-background:new 0 0 260 260;" xml:space="preserve">
<style type="text/css">
	.st0{fill:#8F8F8F;}
	.st1{fill:#444047;}
	.st2{fill:#E0E0E0;}
	.st3{fill:#F7F7F7;}
	.st4{clip-path:url(#SVGID_2_);fill:#EFEFEF;}
	.st5{clip-path:url(#SVGID_2_);}
	.st6{fill:#FFFFFF;}
	.st7{fill:#E2E2E2;}
	.st8{fill:#CECECE;}
	.st9{fill:none;stroke:#FFFFFF;stroke-miterlimit:10;}
	.st10{fill:url(#SVGID_3_);}
	.st11{clip-path:url(#SVGID_5_);fill:url(#SVGID_6_);}
	.st12{clip-path:url(#SVGID_5_);fill:#FFFFFF;}
	.st13{clip-path:url(#SVGID_5_);fill:url(#SVGID_7_);}
	.st14{clip-path:url(#SVGID_5_);}
	.st15{fill:#C4C4C4;}
	.st16{stroke:#FFFFFF;stroke-width:0.7804;stroke-miterlimit:10;}
	.st17{fill:#F9E0AF;stroke:#FFFFFF;stroke-width:0.7804;stroke-miterlimit:10;}
	.st18{fill:#E2C89A;stroke:#FFFFFF;stroke-width:0.7804;stroke-miterlimit:10;}
	.st19{fill:#FFFFFF;stroke:#FFFFFF;stroke-width:0.7804;stroke-miterlimit:10;}
	.st20{fill:#F9E0AF;}
	.st21{fill:#E2C89A;}
	.st22{fill:#E8E8E8;}
	.st23{fill:#E2E3E7;stroke:#FFFFFF;stroke-width:0.886;stroke-miterlimit:10;}
	.st24{fill:#D487D8;}
	.st25{fill:#F9E0AF;stroke:#FFFFFF;stroke-width:0.886;stroke-miterlimit:10;}
	.st26{fill:#FFFFFF;stroke:#FFFFFF;stroke-width:0.886;stroke-miterlimit:10;}
	.st27{clip-path:url(#SVGID_5_);fill:none;stroke:#AAAAAA;stroke-miterlimit:10;}
	.st28{clip-path:url(#SVGID_5_);fill:#E2E2E2;}
	.st29{clip-path:url(#SVGID_5_);fill:none;stroke:#FFFFFF;stroke-miterlimit:10;}
	.st30{fill:url(#SVGID_8_);}
	.st31{fill:none;stroke:#51C9D6;stroke-width:1.2;stroke-miterlimit:10;}
	.st32{fill:#FFFFFF;stroke:#D85092;stroke-miterlimit:10;}
	.st33{fill:url(#SVGID_9_);}
	.st34{fill:#41B5B0;}
	.st35{fill:#2A3B49;}
	.st36{fill:#F2F2F2;}
	.st37{fill:none;stroke:#41B5B0;stroke-width:3;stroke-linecap:round;stroke-miterlimit:10;}
	.st38{fill:#3DA39B;stroke:#FFFFFF;stroke-width:2;stroke-linecap:round;stroke-linejoin:round;stroke-miterlimit:10;}
	.st39{fill:#44BAB4;stroke:#FFFFFF;stroke-width:2;stroke-linecap:round;stroke-linejoin:round;stroke-miterlimit:10;}
	.st40{stroke:#FFFFFF;stroke-width:2;stroke-miterlimit:10;}
	.st41{fill:#BFA882;}
	.st42{fill:#A358A5;}
	.st43{fill:#2D776E;stroke:#FFFFFF;stroke-width:2;stroke-miterlimit:10;}
	.st44{fill:#F9E0AF;stroke:#FFFFFF;stroke-width:2;stroke-miterlimit:10;}
	.st45{fill:#E2C89A;stroke:#FFFFFF;stroke-width:2;stroke-miterlimit:10;}
	.st46{fill:#348C83;stroke:#FFFFFF;stroke-width:2;stroke-miterlimit:10;}
	.st47{fill:url(#SVGID_10_);}
	.st48{fill:url(#SVGID_11_);}
	.st49{fill:#E2E3E7;stroke:#FFFFFF;stroke-width:2;stroke-miterlimit:10;}
	.st50{fill:#44BAB4;stroke:#FFFFFF;stroke-width:2;stroke-miterlimit:10;}
	.st51{fill:#FEFEFE;stroke:#FFFFFF;stroke-width:2;stroke-miterlimit:10;}
	.st52{fill:#FFFFFF;stroke:#FFFFFF;stroke-width:2;stroke-miterlimit:10;}
	.st53{fill:url(#SVGID_12_);stroke:#FFFFFF;stroke-width:2;stroke-miterlimit:10;}
	.st54{fill:url(#SVGID_13_);stroke:#FFFFFF;stroke-width:2;stroke-miterlimit:10;}
	.st55{fill:none;stroke:#D85092;stroke-miterlimit:10;}
	.st56{fill:#77B3D4;}
	.st57{opacity:0.2;}
	.st58{fill:#231F20;}
	.st59{fill:#C75C5C;}
	.st60{fill:#4F5D73;}
	.st61{fill:#E0E0D1;}
	.st62{fill:#FF7D00;}
	.st63{fill:#59616A;}
	.st64{fill:#A8B6C0;}
	.st65{fill:#9DADB8;}
	.st66{fill:#B3BFC8;}
	.st67{fill:#E4E8EB;}
	.st68{fill:#BEC8D0;}
	.st69{fill:#C8D1D7;}
	.st70{fill:#FF50CE;}
	.st71{opacity:0.3;}
	.st72{fill:none;}
	.st73{fill:#010101;}
	.st74{fill:#FECD0E;}
	.st75{opacity:0.73;}
	.st76{clip-path:url(#SVGID_15_);fill:url(#SVGID_16_);}
	.st77{clip-path:url(#SVGID_18_);fill:url(#SVGID_19_);}
	.st78{opacity:0.7;}
	.st79{clip-path:url(#SVGID_21_);fill:url(#SVGID_22_);}
	.st80{fill:#FFE48D;}
	.st81{clip-path:url(#SVGID_24_);fill:url(#SVGID_25_);}
	.st82{clip-path:url(#SVGID_27_);fill:url(#SVGID_28_);}
	.st83{clip-path:url(#SVGID_30_);fill:url(#SVGID_31_);}
	.st84{fill:#DEB3E2;}
	.st85{fill:#95CE9B;}
	.st86{fill:none;stroke:#FFFFFF;stroke-width:4;stroke-linecap:round;stroke-linejoin:round;stroke-miterlimit:10;}
	.st87{fill:#F3CC1B;}
	.st88{fill:#EFEAF4;}
	.st89{fill:#757575;}
	.st90{fill:#C9A50D;}
	.st91{clip-path:url(#SVGID_33_);fill:url(#SVGID_34_);}
	.st92{fill:none;stroke:#BABABA;stroke-width:6.7359;stroke-miterlimit:10;}
	.st93{clip-path:url(#SVGID_36_);fill:url(#SVGID_37_);}
	.st94{clip-path:url(#SVGID_39_);fill:url(#SVGID_40_);}
	.st95{clip-path:url(#SVGID_42_);fill:url(#SVGID_43_);}
	.st96{fill:url(#SVGID_44_);}
	.st97{opacity:0.55;fill:url(#SVGID_45_);}
	.st98{fill:#E6E6E6;}
	.st99{fill:#FFB8B8;}
	.st100{fill:#575A89;}
	.st101{fill:#2F2E41;}
	.st102{fill:#CFCCE0;}
	.st103{opacity:0.2;enable-background:new    ;}
	.st104{fill:#A0616A;}
	.st105{fill:#CCCCCC;}
	.st106{fill:#F27092;}
	.st107{opacity:0.1;fill:#A358A5;enable-background:new    ;}
	.st108{opacity:0.1;}
	.st109{opacity:0.55;fill:url(#SVGID_46_);}
	.st110{fill:#3F3D56;}
	.st111{opacity:0.8;fill:#FA5959;enable-background:new    ;}
	.st112{opacity:0.8;fill:#FED253;enable-background:new    ;}
	.st113{opacity:0.8;fill:#8CCF4D;enable-background:new    ;}
	.st114{opacity:0.2;fill:#A358A5;enable-background:new    ;}
	.st115{fill:none;stroke:#3F3D56;stroke-width:0.4707;stroke-miterlimit:10;}
	.st116{opacity:0.1;enable-background:new    ;}
	.st117{fill:#46455B;}
	.st118{fill:#A8A8A8;}
	.st119{fill:url(#SVGID_47_);}
	.st120{fill:#65617D;}
	.st121{opacity:5.000000e-02;enable-background:new    ;}
	.st122{fill:#EE8E9E;}
	.st123{fill:#E3E8F4;}
	.st124{fill:#E6E8EC;}
	.st125{fill:#565387;}
	.st126{clip-path:url(#SVGID_49_);fill:#EFEFEF;}
	.st127{clip-path:url(#SVGID_49_);}
	.st128{fill:none;stroke:#FFFFFF;stroke-width:4;stroke-miterlimit:10;}
	.st129{fill:#F4E49F;}
	.st130{fill:#FFFFFF;stroke:#AFAFAF;stroke-miterlimit:10;}
	.st131{fill:#80D5E8;}
	.st132{fill:#CCF9FF;}
	.st133{fill:#F5F9FC;}
	.st134{fill:#BDEAF2;}
	.st135{fill:#BD87D6;}
	.st136{fill:url(#SVGID_50_);}
	.st137{clip-path:url(#SVGID_52_);fill:url(#SVGID_53_);}
	.st138{clip-path:url(#SVGID_52_);fill:#FFFFFF;}
	.st139{clip-path:url(#SVGID_52_);fill:none;}
	.st140{clip-path:url(#SVGID_52_);fill:#BD87D6;}
	.st141{clip-path:url(#SVGID_52_);fill:none;stroke:#AAAAAA;stroke-width:4;stroke-miterlimit:10;}
	.st142{clip-path:url(#SVGID_52_);fill:#A8B6C0;}
	.st143{clip-path:url(#SVGID_52_);fill:#80D5E8;}
	.st144{clip-path:url(#SVGID_52_);fill:#CCF9FF;}
	.st145{clip-path:url(#SVGID_52_);fill:#F5F9FC;}
	.st146{clip-path:url(#SVGID_52_);fill:#BDEAF2;}
	.st147{fill:none;stroke:#E8C82A;stroke-width:13.3141;stroke-miterlimit:10;}
	.st148{fill:#F478BC;}
	.st149{fill:#F4A6D4;}
	.st150{clip-path:url(#SVGID_55_);fill:url(#SVGID_56_);}
	.st151{clip-path:url(#SVGID_58_);fill:url(#SVGID_59_);}
	.st152{clip-path:url(#SVGID_61_);fill:url(#SVGID_62_);}
	.st153{clip-path:url(#SVGID_64_);fill:url(#SVGID_65_);}
	.st154{clip-path:url(#SVGID_67_);fill:url(#SVGID_68_);}
	.st155{clip-path:url(#SVGID_70_);fill:url(#SVGID_71_);}
	.st156{clip-path:url(#SVGID_73_);fill:url(#SVGID_74_);}
	.st157{clip-path:url(#SVGID_76_);fill:url(#SVGID_77_);}
	.st158{clip-path:url(#SVGID_79_);fill:url(#SVGID_80_);}
	.st159{clip-path:url(#SVGID_82_);fill:url(#SVGID_83_);}
	.st160{fill:url(#SVGID_84_);}
</style>
<g>
	<g>
		<g id="Layer_1_9_">
			<g>
				<g class="st57">
					<path class="st58" d="M-0.1,77.6V190c0,9.9,8.1,18,18,18h143.9c9.9,0,18-8.1,18-18V77.6H-0.1z"/>
				</g>
				<g>
					<path class="st88" d="M-0.1,68.6V181c0,9.9,8.1,18,18,18h143.9c9.9,0,18-8.1,18-18V68.6H-0.1z"/>
				</g>
				<g class="st57">
					<path class="st58" d="M161.7,28.1H17.9c-9.9,0-18,8.1-18,18v31.5h179.8V46.1C179.7,36.2,171.7,28.1,161.7,28.1z"/>
				</g>
				<g>
					<path class="st87" d="M161.7,19.1H17.9c-9.9,0-18,8.1-18,18v31.5h179.8V37.1C179.7,27.2,171.7,19.1,161.7,19.1z"/>
				</g>
				<g>
					<path class="st89" d="M89.8,181c-5,0-9-4-9-9c0-24.8,7.9-42.5,15.7-54H67.3c-5,0-9-4-9-9c0-5,4-9,9-9h49.5
						c3.9,0,7.4,2.5,8.6,6.3c1.2,3.7-0.2,7.8-3.4,10.1c-0.9,0.7-23.2,17.4-23.2,55.6C98.8,177,94.8,181,89.8,181z"/>
				</g>
				<g>
					<path class="st90" d="M35.9,50.6c-5,0-9-4-9-9V10.1c0-5,4-9,9-9l0,0c5,0,9,4,9,9v31.5C44.9,46.6,40.8,50.6,35.9,50.6L35.9,50.6
						z"/>
				</g>
				<g>
					<path class="st90" d="M148.3,50.6c-5,0-9-4-9-9V10.1c0-5,4-9,9-9l0,0c5,0,9,4,9,9v31.5C157.3,46.6,153.2,50.6,148.3,50.6
						L148.3,50.6z"/>
				</g>
			</g>
		</g>
	</g>
	<g>
		<defs>
			<circle id="SVGID_72_" cx="197.4" cy="196.1" r="62.7"/>
		</defs>
		<use xlink:href="#SVGID_72_"  style="overflow:visible;fill:#D487D8;"/>
		<clipPath id="SVGID_2_">
			<use xlink:href="#SVGID_72_"  style="overflow:visible;"/>
		</clipPath>
		<linearGradient id="SVGID_3_" gradientUnits="userSpaceOnUse" x1="-10.7669" y1="153.2284" x2="346.8365" y2="153.2284">
			<stop  offset="0" style="stop-color:#D487D8"/>
			<stop  offset="1" style="stop-color:#D0A3D3"/>
		</linearGradient>
		<rect x="-10.8" y="0.3" style="clip-path:url(#SVGID_2_);fill:url(#SVGID_3_);" width="357.6" height="305.8"/>
	</g>
	<g>
		<g>
			<path class="st6" d="M165.4,191.5c5,0,9.1-4.1,9.1-9.1s-4.1-9.1-9.1-9.1c-5,0-9.1,4.1-9.1,9.1S160.4,191.5,165.4,191.5z
				 M229.3,191.5c5,0,9.1-4.1,9.1-9.1s-4.1-9.1-9.1-9.1s-9.1,4.1-9.1,9.1S224.3,191.5,229.3,191.5z M233.9,196.1h-9.1
				c-2.5,0-4.8,1-6.4,2.7c5.8,3.2,9.8,8.8,10.7,15.6h9.4c2.5,0,4.6-2,4.6-4.6v-4.6C243,200.2,238.9,196.1,233.9,196.1z M197.4,196.1
				c8.8,0,16-7.2,16-16s-7.2-16-16-16c-8.8,0-16,7.2-16,16S188.5,196.1,197.4,196.1z M208.3,200.7h-1.2c-3,1.4-6.3,2.3-9.8,2.3
				c-3.5,0-6.8-0.9-9.8-2.3h-1.2c-9.1,0-16.4,7.4-16.4,16.4v4.1c0,3.8,3.1,6.9,6.9,6.9h41.1c3.8,0,6.9-3.1,6.9-6.9v-4.1
				C224.8,208,217.4,200.7,208.3,200.7z M176.4,198.8c-1.7-1.6-3.9-2.7-6.4-2.7h-9.1c-5,0-9.1,4.1-9.1,9.1v4.6c0,2.5,2,4.6,4.6,4.6
				h9.4C166.6,207.6,170.6,201.9,176.4,198.8L176.4,198.8z"/>
		</g>
	</g>
</g>
</svg>
