<?xml version="1.0" encoding="utf-8"?>
<!-- Generator: Adobe Illustrator 23.0.1, SVG Export Plug-In . SVG Version: 6.00 Build 0)  -->
<svg version="1.1" id="圖層_1" xmlns="http://www.w3.org/2000/svg" xmlns:xlink="http://www.w3.org/1999/xlink" x="0px" y="0px"
	 viewBox="0 0 166 82" style="enable-background:new 0 0 166 82;" xml:space="preserve">
<style type="text/css">
	.st0{fill:#8F8F8F;}
	.st1{fill:#444047;}
	.st2{fill:#E0E0E0;}
	.st3{fill:#F7F7F7;}
	.st4{clip-path:url(#SVGID_2_);fill:#EFEFEF;}
	.st5{clip-path:url(#SVGID_2_);}
	.st6{fill:#FFFFFF;}
	.st7{fill:#E2E2E2;}
	.st8{fill:#CECECE;}
	.st9{fill:none;stroke:#FFFFFF;stroke-miterlimit:10;}
	.st10{fill:url(#SVGID_3_);}
	.st11{clip-path:url(#SVGID_5_);fill:url(#SVGID_6_);}
	.st12{clip-path:url(#SVGID_5_);fill:#FFFFFF;}
	.st13{clip-path:url(#SVGID_5_);fill:url(#SVGID_7_);}
	.st14{clip-path:url(#SVGID_5_);}
	.st15{fill:#C4C4C4;}
	.st16{stroke:#FFFFFF;stroke-width:0.7804;stroke-miterlimit:10;}
	.st17{fill:#F9E0AF;stroke:#FFFFFF;stroke-width:0.7804;stroke-miterlimit:10;}
	.st18{fill:#E2C89A;stroke:#FFFFFF;stroke-width:0.7804;stroke-miterlimit:10;}
	.st19{fill:#FFFFFF;stroke:#FFFFFF;stroke-width:0.7804;stroke-miterlimit:10;}
	.st20{fill:#F9E0AF;}
	.st21{fill:#E2C89A;}
	.st22{fill:#E8E8E8;}
	.st23{fill:#E2E3E7;stroke:#FFFFFF;stroke-width:0.886;stroke-miterlimit:10;}
	.st24{fill:#D487D8;}
	.st25{fill:#F9E0AF;stroke:#FFFFFF;stroke-width:0.886;stroke-miterlimit:10;}
	.st26{fill:#FFFFFF;stroke:#FFFFFF;stroke-width:0.886;stroke-miterlimit:10;}
	.st27{clip-path:url(#SVGID_5_);fill:none;stroke:#AAAAAA;stroke-miterlimit:10;}
	.st28{clip-path:url(#SVGID_5_);fill:#E2E2E2;}
	.st29{clip-path:url(#SVGID_5_);fill:none;stroke:#FFFFFF;stroke-miterlimit:10;}
	.st30{fill:url(#SVGID_8_);}
	.st31{fill:none;stroke:#51C9D6;stroke-width:1.2;stroke-miterlimit:10;}
	.st32{fill:#FFFFFF;stroke:#D85092;stroke-miterlimit:10;}
	.st33{fill:url(#SVGID_9_);}
	.st34{fill:#41B5B0;}
	.st35{fill:#2A3B49;}
	.st36{fill:#F2F2F2;}
	.st37{fill:none;stroke:#41B5B0;stroke-width:3;stroke-linecap:round;stroke-miterlimit:10;}
	.st38{fill:#3DA39B;stroke:#FFFFFF;stroke-width:2;stroke-linecap:round;stroke-linejoin:round;stroke-miterlimit:10;}
	.st39{fill:#44BAB4;stroke:#FFFFFF;stroke-width:2;stroke-linecap:round;stroke-linejoin:round;stroke-miterlimit:10;}
	.st40{stroke:#FFFFFF;stroke-width:2;stroke-miterlimit:10;}
	.st41{fill:#BFA882;}
	.st42{fill:#A358A5;}
	.st43{fill:#2D776E;stroke:#FFFFFF;stroke-width:2;stroke-miterlimit:10;}
	.st44{fill:#F9E0AF;stroke:#FFFFFF;stroke-width:2;stroke-miterlimit:10;}
	.st45{fill:#E2C89A;stroke:#FFFFFF;stroke-width:2;stroke-miterlimit:10;}
	.st46{fill:#348C83;stroke:#FFFFFF;stroke-width:2;stroke-miterlimit:10;}
	.st47{fill:url(#SVGID_10_);}
	.st48{fill:url(#SVGID_11_);}
	.st49{fill:#E2E3E7;stroke:#FFFFFF;stroke-width:2;stroke-miterlimit:10;}
	.st50{fill:#44BAB4;stroke:#FFFFFF;stroke-width:2;stroke-miterlimit:10;}
	.st51{fill:#FEFEFE;stroke:#FFFFFF;stroke-width:2;stroke-miterlimit:10;}
	.st52{fill:#FFFFFF;stroke:#FFFFFF;stroke-width:2;stroke-miterlimit:10;}
	.st53{fill:url(#SVGID_12_);stroke:#FFFFFF;stroke-width:2;stroke-miterlimit:10;}
	.st54{fill:url(#SVGID_13_);stroke:#FFFFFF;stroke-width:2;stroke-miterlimit:10;}
	.st55{fill:none;stroke:#D85092;stroke-miterlimit:10;}
	.st56{fill:#77B3D4;}
	.st57{opacity:0.2;}
	.st58{fill:#231F20;}
	.st59{fill:#C75C5C;}
	.st60{fill:#4F5D73;}
	.st61{fill:#E0E0D1;}
	.st62{fill:#FF7D00;}
	.st63{fill:#59616A;}
	.st64{fill:#A8B6C0;}
	.st65{fill:#9DADB8;}
	.st66{fill:#B3BFC8;}
	.st67{fill:#E4E8EB;}
	.st68{fill:#BEC8D0;}
	.st69{fill:#C8D1D7;}
	.st70{fill:#FF50CE;}
	.st71{opacity:0.3;}
	.st72{fill:none;}
	.st73{fill:#010101;}
	.st74{fill:#FECD0E;}
	.st75{fill:#FCF7E8;}
	.st76{opacity:0.73;}
	.st77{clip-path:url(#SVGID_15_);fill:url(#SVGID_16_);}
	.st78{clip-path:url(#SVGID_18_);fill:url(#SVGID_19_);}
	.st79{opacity:0.7;}
	.st80{clip-path:url(#SVGID_21_);fill:url(#SVGID_22_);}
	.st81{fill:#FFE48D;}
	.st82{clip-path:url(#SVGID_24_);fill:url(#SVGID_25_);}
	.st83{clip-path:url(#SVGID_27_);fill:url(#SVGID_28_);}
	.st84{clip-path:url(#SVGID_30_);fill:url(#SVGID_31_);}
	.st85{fill:#DEB3E2;}
	.st86{fill:#EFEAF4;}
	.st87{fill:#F3CC1B;}
	.st88{fill:#757575;}
	.st89{fill:#C9A50D;}
	.st90{clip-path:url(#SVGID_33_);fill:url(#SVGID_34_);}
	.st91{fill:none;stroke:#BABABA;stroke-width:6.7359;stroke-miterlimit:10;}
	.st92{clip-path:url(#SVGID_36_);fill:url(#SVGID_37_);}
	.st93{clip-path:url(#SVGID_39_);fill:url(#SVGID_40_);}
	.st94{clip-path:url(#SVGID_42_);fill:url(#SVGID_43_);}
	.st95{fill:url(#SVGID_44_);}
	.st96{opacity:0.55;fill:url(#SVGID_45_);}
	.st97{fill:#E6E6E6;}
	.st98{fill:#FFB8B8;}
	.st99{fill:#575A89;}
	.st100{fill:#2F2E41;}
	.st101{fill:#CFCCE0;}
	.st102{opacity:0.2;enable-background:new    ;}
	.st103{fill:#A0616A;}
	.st104{fill:#95CE9B;}
	.st105{fill:#CCCCCC;}
	.st106{fill:#F27092;}
	.st107{opacity:0.1;fill:#A358A5;enable-background:new    ;}
	.st108{opacity:0.1;}
	.st109{opacity:0.55;fill:url(#SVGID_46_);}
	.st110{fill:#3F3D56;}
	.st111{opacity:0.8;fill:#FA5959;enable-background:new    ;}
	.st112{opacity:0.8;fill:#FED253;enable-background:new    ;}
	.st113{opacity:0.8;fill:#8CCF4D;enable-background:new    ;}
	.st114{opacity:0.2;fill:#A358A5;enable-background:new    ;}
	.st115{fill:none;stroke:#3F3D56;stroke-width:0.3162;stroke-miterlimit:10;}
	.st116{opacity:0.1;enable-background:new    ;}
	.st117{fill:#46455B;}
	.st118{fill:#A8A8A8;}
	.st119{fill:url(#SVGID_47_);}
	.st120{fill:#65617D;}
	.st121{opacity:5.000000e-02;enable-background:new    ;}
	.st122{fill:#EE8E9E;}
	.st123{fill:#E3E8F4;}
	.st124{fill:#E6E8EC;}
	.st125{fill:#565387;}
	.st126{clip-path:url(#SVGID_49_);fill:#EFEFEF;}
	.st127{clip-path:url(#SVGID_49_);}
	.st128{fill:none;stroke:#FFFFFF;stroke-width:2.139;stroke-miterlimit:10;}
	.st129{fill:#F4E49F;}
	.st130{fill:#FFFFFF;stroke:#AFAFAF;stroke-width:0.6706;stroke-miterlimit:10;}
	.st131{fill:#80D5E8;}
	.st132{fill:#CCF9FF;}
	.st133{fill:#F5F9FC;}
	.st134{fill:#BDEAF2;}
	.st135{fill:#BD87D6;}
	.st136{clip-path:url(#SVGID_51_);fill:url(#SVGID_52_);}
	.st137{clip-path:url(#SVGID_54_);fill:url(#SVGID_55_);}
	.st138{clip-path:url(#SVGID_57_);fill:url(#SVGID_58_);}
	.st139{clip-path:url(#SVGID_60_);fill:url(#SVGID_61_);}
	.st140{clip-path:url(#SVGID_63_);fill:url(#SVGID_64_);}
	.st141{clip-path:url(#SVGID_66_);fill:url(#SVGID_67_);}
	.st142{clip-path:url(#SVGID_69_);fill:url(#SVGID_70_);}
	.st143{clip-path:url(#SVGID_72_);fill:url(#SVGID_73_);}
	.st144{clip-path:url(#SVGID_75_);fill:url(#SVGID_76_);}
	.st145{clip-path:url(#SVGID_78_);fill:url(#SVGID_79_);}
	.st146{fill:url(#SVGID_80_);}
	.st147{opacity:0.55;fill:url(#SVGID_81_);}
	.st148{opacity:0.55;fill:url(#SVGID_82_);}
	.st149{fill:url(#SVGID_83_);}
	.st150{clip-path:url(#SVGID_85_);fill:url(#SVGID_86_);}
	.st151{clip-path:url(#SVGID_85_);fill:url(#SVGID_87_);}
	.st152{clip-path:url(#SVGID_85_);fill:#FFFFFF;}
	.st153{clip-path:url(#SVGID_85_);fill:none;}
	.st154{clip-path:url(#SVGID_85_);fill:#BD87D6;}
	.st155{clip-path:url(#SVGID_85_);}
	.st156{fill:none;stroke:#E8C82A;stroke-width:7.1192;stroke-miterlimit:10;}
	.st157{fill:#F478BC;}
	.st158{fill:#F4A6D4;}
	.st159{clip-path:url(#SVGID_85_);fill:none;stroke:#AAAAAA;stroke-width:2.1388;stroke-miterlimit:10;}
	.st160{clip-path:url(#SVGID_85_);fill:#A8B6C0;}
	.st161{clip-path:url(#SVGID_85_);fill:#80D5E8;}
	.st162{clip-path:url(#SVGID_85_);fill:#CCF9FF;}
	.st163{clip-path:url(#SVGID_85_);fill:#F5F9FC;}
	.st164{clip-path:url(#SVGID_85_);fill:#BDEAF2;}
	.st165{fill:#FFFFFF;stroke:#AFAFAF;stroke-width:0.6727;stroke-miterlimit:10;}
	.st166{clip-path:url(#SVGID_89_);fill:url(#SVGID_90_);}
	.st167{clip-path:url(#SVGID_89_);fill:url(#SVGID_91_);}
	.st168{clip-path:url(#SVGID_89_);fill:#FFFFFF;}
	.st169{clip-path:url(#SVGID_89_);fill:none;}
	.st170{clip-path:url(#SVGID_89_);fill:#BD87D6;}
	.st171{clip-path:url(#SVGID_89_);}
	.st172{fill:none;stroke:#E8C82A;stroke-width:7.1418;stroke-miterlimit:10;}
	
		.st173{clip-path:url(#SVGID_89_);fill:none;stroke:#AAAAAA;stroke-width:2.1458;stroke-linecap:round;stroke-linejoin:round;stroke-miterlimit:10;}
	.st174{clip-path:url(#SVGID_89_);fill:#A8B6C0;}
	.st175{clip-path:url(#SVGID_89_);fill:#80D5E8;}
	.st176{clip-path:url(#SVGID_89_);fill:#CCF9FF;}
	.st177{clip-path:url(#SVGID_89_);fill:#F5F9FC;}
	.st178{clip-path:url(#SVGID_89_);fill:#BDEAF2;}
	.st179{clip-path:url(#SVGID_93_);fill:#EFEFEF;}
	.st180{clip-path:url(#SVGID_93_);}
	.st181{fill:none;stroke:#FFFFFF;stroke-width:2.1458;stroke-miterlimit:10;}
	.st182{clip-path:url(#SVGID_95_);fill:#EFEFEF;}
	.st183{clip-path:url(#SVGID_95_);}
	.st184{clip-path:url(#SVGID_97_);fill:url(#SVGID_98_);}
	.st185{clip-path:url(#SVGID_97_);fill:url(#SVGID_99_);}
	.st186{clip-path:url(#SVGID_97_);fill:#FFFFFF;}
	.st187{clip-path:url(#SVGID_97_);fill:none;}
	.st188{clip-path:url(#SVGID_97_);fill:#BD87D6;}
	.st189{clip-path:url(#SVGID_97_);}
	
		.st190{clip-path:url(#SVGID_97_);fill:none;stroke:#AAAAAA;stroke-width:2.1458;stroke-linecap:round;stroke-linejoin:round;stroke-miterlimit:10;}
	.st191{clip-path:url(#SVGID_97_);fill:#A8B6C0;}
	.st192{clip-path:url(#SVGID_97_);fill:#80D5E8;}
	.st193{clip-path:url(#SVGID_97_);fill:#CCF9FF;}
	.st194{clip-path:url(#SVGID_97_);fill:#F5F9FC;}
	.st195{clip-path:url(#SVGID_97_);fill:#BDEAF2;}
	.st196{fill:none;stroke:#FFFFFF;stroke-width:1.7208;stroke-linecap:round;stroke-linejoin:round;stroke-miterlimit:10;}
</style>
<g>
	<g>
		<g>
			<g>
				<rect x="2.1" y="17.6" class="st6" width="95.3" height="56.6"/>
				<g>
					<path class="st104" d="M55.4,51.9h-2.5V38.1c0-0.7-0.6-1.3-1.3-1.3h-2.1c-0.7,0-1.5,0.2-2.1,0.6L45,39
						c-0.6,0.4-0.7,1.2-0.4,1.7c0,0,0,0,0,0l1.4,2.1c0.4,0.6,1.2,0.7,1.7,0.4c0,0,0,0,0,0l0.1,0v8.7h-2.5c-0.7,0-1.3,0.6-1.3,1.3
						v2.5c0,0.7,0.6,1.3,1.3,1.3h10.1c0.7,0,1.3-0.6,1.3-1.3v-2.5C56.7,52.5,56.1,51.9,55.4,51.9L55.4,51.9z M95.7,16.7H5
						c-2.8,0-5,2.3-5,5v50.4c0,2.8,2.3,5,5,5h90.7c2.8,0,5-2.3,5-5V21.7C100.8,18.9,98.5,16.7,95.7,16.7z M7.6,69.6V59.5
						c5.6,0,10.1,4.5,10.1,10.1H7.6z M7.6,34.3V24.2h10.1C17.6,29.8,13.1,34.3,7.6,34.3z M50.4,64.5c-8.3,0-15.1-7.9-15.1-17.6
						c0-9.7,6.8-17.6,15.1-17.6s15.1,7.9,15.1,17.6C65.5,56.6,58.7,64.5,50.4,64.5z M93.2,69.6H83.1c0-5.6,4.5-10.1,10.1-10.1V69.6z
						 M93.2,34.3c-5.6,0-10.1-4.5-10.1-10.1h10.1V34.3z"/>
				</g>
				<rect x="5" y="21.6" class="st104" width="15.1" height="49"/>
				<rect x="81.2" y="21.6" class="st104" width="15.1" height="49"/>
			</g>
			<rect x="5.5" y="22.4" class="st196" width="89.8" height="49"/>
		</g>
		<g>
			<g>
				<rect x="41.5" y="1" class="st6" width="95.3" height="56.6"/>
				<g>
					<path class="st104" d="M94.8,35.3h-2.5V21.4c0-0.7-0.6-1.3-1.3-1.3h-2.1c-0.7,0-1.5,0.2-2.1,0.6l-2.4,1.6
						c-0.6,0.4-0.7,1.2-0.4,1.7c0,0,0,0,0,0l1.4,2.1c0.4,0.6,1.2,0.7,1.7,0.4c0,0,0,0,0,0l0.1,0v8.7h-2.5c-0.7,0-1.3,0.6-1.3,1.3V39
						c0,0.7,0.6,1.3,1.3,1.3h10.1c0.7,0,1.3-0.6,1.3-1.3v-2.5C96.1,35.8,95.5,35.3,94.8,35.3L94.8,35.3z M135.1,0H44.4
						c-2.8,0-5,2.3-5,5v50.4c0,2.8,2.3,5,5,5h90.7c2.8,0,5-2.3,5-5V5C140.2,2.3,137.9,0,135.1,0z M46.9,52.9V42.8
						c5.6,0,10.1,4.5,10.1,10.1H46.9z M46.9,17.6V7.6H57C57,13.1,52.5,17.6,46.9,17.6z M89.8,47.9c-8.3,0-15.1-7.9-15.1-17.6
						c0-9.7,6.8-17.6,15.1-17.6s15.1,7.9,15.1,17.6C104.9,40,98.1,47.9,89.8,47.9z M132.6,52.9h-10.1c0-5.6,4.5-10.1,10.1-10.1V52.9
						z M132.6,17.6c-5.6,0-10.1-4.5-10.1-10.1h10.1V17.6z"/>
				</g>
				<rect x="44.4" y="5" class="st104" width="15.1" height="49"/>
				<rect x="120.6" y="5" class="st104" width="15.1" height="49"/>
			</g>
			<rect x="44.9" y="5.7" class="st196" width="89.8" height="49"/>
		</g>
		<rect x="120" y="57.7" class="st6" width="34.3" height="19.5"/>
		<g>
			<rect x="131.4" y="40.9" class="st6" width="34.3" height="19.5"/>
			<g>
				<path class="st87" d="M120,72.5v3.8c0,3.2,7.7,5.7,17.2,5.7c9.5,0,17.2-2.6,17.2-5.7v-3.8c-3.7,2.6-10.4,3.8-17.2,3.8
					C130.4,76.3,123.7,75.1,120,72.5z M148.6,47.7c9.5,0,17.2-2.6,17.2-5.7s-7.7-5.7-17.2-5.7c-9.5,0-17.2,2.6-17.2,5.7
					S139.1,47.7,148.6,47.7z M120,63.1v4.6c0,3.2,7.7,5.7,17.2,5.7c9.5,0,17.2-2.6,17.2-5.7v-4.6c-3.7,3-10.4,4.6-17.2,4.6
					C130.4,67.7,123.7,66.1,120,63.1z M157.1,64.1c5.1-1,8.6-2.8,8.6-5v-3.8c-2.1,1.5-5.1,2.5-8.6,3.1V64.1z M137.1,50.5
					c-9.5,0-17.2,3.2-17.2,7.1s7.7,7.1,17.2,7.1c9.5,0,17.2-3.2,17.2-7.1S146.6,50.5,137.1,50.5z M156.7,55.6c5.4-1,9-2.9,9-5v-3.8
					c-3.2,2.2-8.6,3.4-14.4,3.7C154,51.7,155.9,53.5,156.7,55.6z"/>
			</g>
		</g>
	</g>
	<rect x="0.2" y="0.3" class="st72" width="166" height="82"/>
</g>
</svg>
