<?xml version="1.0" encoding="utf-8"?>
<!-- Generator: Adobe Illustrator 23.0.1, SVG Export Plug-In . SVG Version: 6.00 Build 0)  -->
<svg version="1.1" id="圖層_1" xmlns="http://www.w3.org/2000/svg" xmlns:xlink="http://www.w3.org/1999/xlink" x="0px" y="0px"
	 viewBox="0 0 50 41.7" style="enable-background:new 0 0 50 41.7;" xml:space="preserve">
<style type="text/css">
	.st0{fill:#8F8F8F;}
	.st1{fill:#444047;}
	.st2{fill:#E0E0E0;}
	.st3{fill:#F7F7F7;}
	.st4{clip-path:url(#SVGID_2_);fill:#EFEFEF;}
	.st5{clip-path:url(#SVGID_2_);}
	.st6{fill:#FFFFFF;}
	.st7{fill:#E2E2E2;}
	.st8{fill:#CECECE;}
	.st9{fill:none;stroke:#FFFFFF;stroke-miterlimit:10;}
	.st10{fill:url(#SVGID_3_);}
	.st11{clip-path:url(#SVGID_5_);fill:url(#SVGID_6_);}
	.st12{clip-path:url(#SVGID_5_);fill:#FFFFFF;}
	.st13{clip-path:url(#SVGID_5_);fill:url(#SVGID_7_);}
	.st14{clip-path:url(#SVGID_5_);}
	.st15{fill:#C4C4C4;}
	.st16{stroke:#FFFFFF;stroke-width:0.7804;stroke-miterlimit:10;}
	.st17{fill:#F9E0AF;stroke:#FFFFFF;stroke-width:0.7804;stroke-miterlimit:10;}
	.st18{fill:#E2C89A;stroke:#FFFFFF;stroke-width:0.7804;stroke-miterlimit:10;}
	.st19{fill:#FFFFFF;stroke:#FFFFFF;stroke-width:0.7804;stroke-miterlimit:10;}
	.st20{fill:#F9E0AF;}
	.st21{fill:#E2C89A;}
	.st22{fill:#E8E8E8;}
	.st23{fill:#E2E3E7;stroke:#FFFFFF;stroke-width:0.886;stroke-miterlimit:10;}
	.st24{fill:#D487D8;}
	.st25{fill:#F9E0AF;stroke:#FFFFFF;stroke-width:0.886;stroke-miterlimit:10;}
	.st26{fill:#FFFFFF;stroke:#FFFFFF;stroke-width:0.886;stroke-miterlimit:10;}
	.st27{clip-path:url(#SVGID_5_);fill:none;stroke:#AAAAAA;stroke-miterlimit:10;}
	.st28{clip-path:url(#SVGID_5_);fill:#E2E2E2;}
	.st29{clip-path:url(#SVGID_5_);fill:none;stroke:#FFFFFF;stroke-miterlimit:10;}
	.st30{fill:url(#SVGID_8_);}
	.st31{fill:none;stroke:#51C9D6;stroke-width:1.2;stroke-miterlimit:10;}
	.st32{fill:#FFFFFF;stroke:#D85092;stroke-miterlimit:10;}
	.st33{fill:url(#SVGID_9_);}
	.st34{fill:#41B5B0;}
	.st35{fill:#2A3B49;}
	.st36{fill:#F2F2F2;}
	.st37{fill:none;stroke:#41B5B0;stroke-width:3;stroke-linecap:round;stroke-miterlimit:10;}
	.st38{fill:#3DA39B;stroke:#FFFFFF;stroke-width:2;stroke-linecap:round;stroke-linejoin:round;stroke-miterlimit:10;}
	.st39{fill:#44BAB4;stroke:#FFFFFF;stroke-width:2;stroke-linecap:round;stroke-linejoin:round;stroke-miterlimit:10;}
	.st40{stroke:#FFFFFF;stroke-width:2;stroke-miterlimit:10;}
	.st41{fill:#BFA882;}
	.st42{fill:#A358A5;}
	.st43{fill:#2D776E;stroke:#FFFFFF;stroke-width:2;stroke-miterlimit:10;}
	.st44{fill:#F9E0AF;stroke:#FFFFFF;stroke-width:2;stroke-miterlimit:10;}
	.st45{fill:#E2C89A;stroke:#FFFFFF;stroke-width:2;stroke-miterlimit:10;}
	.st46{fill:#348C83;stroke:#FFFFFF;stroke-width:2;stroke-miterlimit:10;}
	.st47{fill:url(#SVGID_10_);}
	.st48{fill:url(#SVGID_11_);}
	.st49{fill:#E2E3E7;stroke:#FFFFFF;stroke-width:2;stroke-miterlimit:10;}
	.st50{fill:#44BAB4;stroke:#FFFFFF;stroke-width:2;stroke-miterlimit:10;}
	.st51{fill:#FEFEFE;stroke:#FFFFFF;stroke-width:2;stroke-miterlimit:10;}
	.st52{fill:#FFFFFF;stroke:#FFFFFF;stroke-width:2;stroke-miterlimit:10;}
	.st53{fill:url(#SVGID_12_);stroke:#FFFFFF;stroke-width:2;stroke-miterlimit:10;}
	.st54{fill:url(#SVGID_13_);stroke:#FFFFFF;stroke-width:2;stroke-miterlimit:10;}
	.st55{fill:none;stroke:#D85092;stroke-miterlimit:10;}
	.st56{fill:#77B3D4;}
	.st57{opacity:0.2;}
	.st58{fill:#231F20;}
	.st59{fill:#C75C5C;}
	.st60{fill:#4F5D73;}
	.st61{fill:#E0E0D1;}
	.st62{fill:#FF7D00;}
	.st63{fill:#59616A;}
	.st64{fill:#A8B6C0;}
	.st65{fill:#9DADB8;}
	.st66{fill:#B3BFC8;}
	.st67{fill:#E4E8EB;}
	.st68{fill:#BEC8D0;}
	.st69{fill:#C8D1D7;}
	.st70{fill:#FF50CE;}
	.st71{opacity:0.3;}
	.st72{fill:none;}
	.st73{fill:#010101;}
	.st74{fill:#FECD0E;}
	.st75{opacity:0.73;}
	.st76{clip-path:url(#SVGID_15_);fill:url(#SVGID_16_);}
	.st77{clip-path:url(#SVGID_18_);fill:url(#SVGID_19_);}
	.st78{opacity:0.7;}
	.st79{clip-path:url(#SVGID_21_);fill:url(#SVGID_22_);}
	.st80{fill:#FFE48D;}
	.st81{clip-path:url(#SVGID_24_);fill:url(#SVGID_25_);}
	.st82{clip-path:url(#SVGID_27_);fill:url(#SVGID_28_);}
	.st83{clip-path:url(#SVGID_30_);fill:url(#SVGID_31_);}
	.st84{fill:#DEB3E2;}
	.st85{fill:#95CE9B;}
	.st86{fill:none;stroke:#FFFFFF;stroke-width:4;stroke-linecap:round;stroke-linejoin:round;stroke-miterlimit:10;}
	.st87{fill:#F3CC1B;}
	.st88{fill:#EFEAF4;}
	.st89{fill:#757575;}
	.st90{fill:#C9A50D;}
	.st91{clip-path:url(#SVGID_33_);fill:url(#SVGID_34_);}
	.st92{fill:none;stroke:#BABABA;stroke-width:6.7359;stroke-miterlimit:10;}
	.st93{clip-path:url(#SVGID_36_);fill:url(#SVGID_37_);}
	.st94{clip-path:url(#SVGID_39_);fill:url(#SVGID_40_);}
	.st95{clip-path:url(#SVGID_42_);fill:url(#SVGID_43_);}
	.st96{fill:url(#SVGID_44_);}
	.st97{opacity:0.55;fill:url(#SVGID_45_);}
	.st98{fill:#E6E6E6;}
	.st99{fill:#FFB8B8;}
	.st100{fill:#575A89;}
	.st101{fill:#2F2E41;}
	.st102{fill:#CFCCE0;}
	.st103{opacity:0.2;enable-background:new    ;}
	.st104{fill:#A0616A;}
	.st105{fill:#CCCCCC;}
	.st106{fill:#F27092;}
	.st107{opacity:0.1;fill:#A358A5;enable-background:new    ;}
	.st108{opacity:0.1;}
	.st109{opacity:0.55;fill:url(#SVGID_46_);}
	.st110{fill:#3F3D56;}
	.st111{opacity:0.8;fill:#FA5959;enable-background:new    ;}
	.st112{opacity:0.8;fill:#FED253;enable-background:new    ;}
	.st113{opacity:0.8;fill:#8CCF4D;enable-background:new    ;}
	.st114{opacity:0.2;fill:#A358A5;enable-background:new    ;}
	.st115{fill:none;stroke:#3F3D56;stroke-width:0.4707;stroke-miterlimit:10;}
	.st116{opacity:0.1;enable-background:new    ;}
	.st117{fill:#46455B;}
	.st118{fill:#A8A8A8;}
	.st119{fill:url(#SVGID_47_);}
	.st120{fill:#65617D;}
	.st121{opacity:5.000000e-02;enable-background:new    ;}
	.st122{fill:#EE8E9E;}
	.st123{fill:#E3E8F4;}
	.st124{fill:#E6E8EC;}
	.st125{fill:#565387;}
	.st126{clip-path:url(#SVGID_49_);fill:#EFEFEF;}
	.st127{clip-path:url(#SVGID_49_);}
	.st128{fill:none;stroke:#FFFFFF;stroke-width:4;stroke-miterlimit:10;}
	.st129{fill:#F4E49F;}
	.st130{fill:#FFFFFF;stroke:#AFAFAF;stroke-miterlimit:10;}
	.st131{fill:#80D5E8;}
	.st132{fill:#CCF9FF;}
	.st133{fill:#F5F9FC;}
	.st134{fill:#BDEAF2;}
	.st135{fill:#BD87D6;}
	.st136{fill:url(#SVGID_50_);}
	.st137{clip-path:url(#SVGID_52_);fill:url(#SVGID_53_);}
	.st138{clip-path:url(#SVGID_52_);fill:#FFFFFF;}
	.st139{clip-path:url(#SVGID_52_);fill:none;}
	.st140{clip-path:url(#SVGID_52_);fill:#BD87D6;}
	.st141{clip-path:url(#SVGID_52_);fill:none;stroke:#AAAAAA;stroke-width:4;stroke-miterlimit:10;}
	.st142{clip-path:url(#SVGID_52_);fill:#A8B6C0;}
	.st143{clip-path:url(#SVGID_52_);fill:#80D5E8;}
	.st144{clip-path:url(#SVGID_52_);fill:#CCF9FF;}
	.st145{clip-path:url(#SVGID_52_);fill:#F5F9FC;}
	.st146{clip-path:url(#SVGID_52_);fill:#BDEAF2;}
	.st147{fill:none;stroke:#E8C82A;stroke-width:13.3141;stroke-miterlimit:10;}
	.st148{fill:#F478BC;}
	.st149{fill:#F4A6D4;}
	.st150{clip-path:url(#SVGID_55_);fill:url(#SVGID_56_);}
	.st151{clip-path:url(#SVGID_58_);fill:url(#SVGID_59_);}
	.st152{clip-path:url(#SVGID_61_);fill:url(#SVGID_62_);}
	.st153{clip-path:url(#SVGID_64_);fill:url(#SVGID_65_);}
	.st154{clip-path:url(#SVGID_67_);fill:url(#SVGID_68_);}
	.st155{clip-path:url(#SVGID_70_);fill:url(#SVGID_71_);}
	.st156{clip-path:url(#SVGID_73_);fill:url(#SVGID_74_);}
	.st157{clip-path:url(#SVGID_76_);fill:url(#SVGID_77_);}
	.st158{clip-path:url(#SVGID_79_);fill:url(#SVGID_80_);}
	.st159{clip-path:url(#SVGID_82_);fill:url(#SVGID_83_);}
	.st160{fill:url(#SVGID_84_);}
</style>
<g>
	<g class="st75">
		<defs>
			<circle id="SVGID_54_" class="st75" cx="9.3" cy="9.2" r="8.8"/>
		</defs>
		<clipPath id="SVGID_2_">
			<use xlink:href="#SVGID_54_"  style="overflow:visible;"/>
		</clipPath>
		<linearGradient id="SVGID_3_" gradientUnits="userSpaceOnUse" x1="-5.9153" y1="17.2207" x2="51.5007" y2="17.2207">
			<stop  offset="0" style="stop-color:#D487D8"/>
			<stop  offset="1" style="stop-color:#D0A3D3"/>
		</linearGradient>
		<rect x="-5.9" y="-7.3" style="clip-path:url(#SVGID_2_);fill:url(#SVGID_3_);" width="57.4" height="49.1"/>
	</g>
	<g>
		<defs>
			<circle id="SVGID_57_" cx="25.6" cy="25.5" r="11.5"/>
		</defs>
		<clipPath id="SVGID_5_">
			<use xlink:href="#SVGID_57_"  style="overflow:visible;"/>
		</clipPath>
		<linearGradient id="SVGID_6_" gradientUnits="userSpaceOnUse" x1="-12.4694" y1="17.6856" x2="52.8784" y2="17.6856">
			<stop  offset="0" style="stop-color:#D487D8"/>
			<stop  offset="1" style="stop-color:#D0A3D3"/>
		</linearGradient>
		<rect x="-12.5" y="-10.3" class="st11" width="65.3" height="55.9"/>
	</g>
	<g class="st78">
		<defs>
			<circle id="SVGID_60_" class="st78" cx="42.2" cy="12.7" r="6.9"/>
		</defs>
		<clipPath id="SVGID_7_">
			<use xlink:href="#SVGID_60_"  style="overflow:visible;"/>
		</clipPath>
		<linearGradient id="SVGID_8_" gradientUnits="userSpaceOnUse" x1="-16.773" y1="19.7655" x2="52.8358" y2="19.7655">
			<stop  offset="0" style="stop-color:#D487D8"/>
			<stop  offset="1" style="stop-color:#D0A3D3"/>
		</linearGradient>
		<rect x="-16.8" y="-10" style="clip-path:url(#SVGID_7_);fill:url(#SVGID_8_);" width="69.6" height="59.5"/>
	</g>
	<g>
		<path class="st6" d="M14.9,12.3C14.7,12,14.3,11.8,14,12l-0.4,0.2l-0.7-1.8c0.8-0.6,1.1-1.8,0.6-2.7L12,5
			c-0.1-0.2-0.4-0.3-0.7-0.2l-2,0.8l-2-0.8C7,4.6,6.7,4.7,6.6,5L5,7.6c-0.5,0.9-0.2,2.1,0.6,2.7L5,12.1L4.6,12
			c-0.4-0.1-0.8,0-0.9,0.4c0,0.1,0,0.2,0.1,0.2l2.9,1.2c0.1,0,0.2,0,0.2-0.1c0.1-0.4,0-0.8-0.4-0.9L6,12.5l0.7-1.8
			c0.1,0,0.2,0,0.2,0c0.9,0,1.7-0.6,2-1.5l0.4-1.3l0.4,1.3c0.2,0.9,1.1,1.5,2,1.5c0.1,0,0.2,0,0.2,0l0.7,1.8l-0.4,0.2
			c-0.4,0.1-0.5,0.6-0.4,0.9c0,0.1,0.1,0.1,0.2,0.1l2.9-1.2C14.9,12.5,14.9,12.4,14.9,12.3L14.9,12.3z M8.5,7.6l-2-0.8l0.6-1.1
			l1.7,0.7L8.5,7.6z M10,7.6L9.7,6.3l1.7-0.7L12,6.7L10,7.6z"/>
	</g>
	<g>
		<path class="st6" d="M31.2,21.2l-10.7-0.7c-0.6,0-1.1,0.4-1.1,1l-0.5,7.9c0,0.6,0.4,1.1,1,1.1l10.7,0.7c0.6,0,1.1-0.4,1.1-1
			l0.5-7.9C32.3,21.7,31.8,21.2,31.2,21.2z M23.2,22.9c0.8,0,1.4,0.7,1.3,1.5c0,0.8-0.7,1.4-1.5,1.3c-0.8,0-1.4-0.7-1.3-1.5
			C21.8,23.4,22.4,22.8,23.2,22.9z M25.4,28.3c0,0.2-0.2,0.4-0.5,0.4l-4-0.2c-0.3,0-0.5-0.2-0.5-0.5l0-0.4c0-0.7,0.8-1.2,1.6-1.2
			l0.1,0c0.3,0.1,0.6,0.2,0.9,0.2c0.3,0,0.6,0,0.9-0.1l0.1,0c0.8,0.1,1.5,0.7,1.4,1.4L25.4,28.3z M30.5,27.4c0,0.1-0.1,0.2-0.2,0.2
			l-3.2-0.2c-0.1,0-0.2-0.1-0.2-0.2l0-0.4c0-0.1,0.1-0.2,0.2-0.2l3.2,0.2c0.1,0,0.2,0.1,0.2,0.2L30.5,27.4z M30.6,26
			c0,0.1-0.1,0.2-0.2,0.2L27.2,26c-0.1,0-0.2-0.1-0.2-0.2l0-0.4c0-0.1,0.1-0.2,0.2-0.2l3.2,0.2c0.1,0,0.2,0.1,0.2,0.2L30.6,26z
			 M30.7,24.6c0,0.1-0.1,0.2-0.2,0.2l-3.2-0.2c-0.1,0-0.2-0.1-0.2-0.2l0-0.4c0-0.1,0.1-0.2,0.2-0.2l3.2,0.2c0.1,0,0.2,0.1,0.2,0.2
			L30.7,24.6z"/>
	</g>
	<g>
		<path class="st6" d="M46.4,12.8v-0.2c0-0.1-0.1-0.2-0.2-0.2h-3.7v-0.5h1c0.2,0,0.4-0.2,0.4-0.4V9.7c0-0.2-0.2-0.4-0.4-0.4h-2.5
			c-0.2,0-0.4,0.2-0.4,0.4v1.7c0,0.2,0.2,0.4,0.4,0.4h1v0.5h-3.7c-0.1,0-0.2,0.1-0.2,0.2v0.2c0,0.1,0.1,0.2,0.2,0.2h1.4v0.5h-0.7
			c-0.2,0-0.4,0.2-0.4,0.4v1.7c0,0.2,0.2,0.4,0.4,0.4h2.1c0.2,0,0.4-0.2,0.4-0.4V14c0-0.2-0.2-0.4-0.4-0.4h-0.7V13h4v0.5h-0.7
			c-0.2,0-0.4,0.2-0.4,0.4v1.7c0,0.2,0.2,0.4,0.4,0.4h2.1c0.2,0,0.4-0.2,0.4-0.4V14c0-0.2-0.2-0.4-0.4-0.4h-0.7V13h1.4
			C46.3,13,46.4,12.9,46.4,12.8z M41.3,11v-0.8H43V11H41.3z M40.5,15.2h-1.3v-0.8h1.3V15.2z M45.1,15.2h-1.3v-0.8h1.3V15.2z"/>
	</g>
	<polygon class="st74" points="29.5,3.2 30.8,1.2 28.8,2.4 26.8,1.1 28,3.1 26.7,5.1 28.7,3.9 30.7,5.2 	"/>
	<polygon class="st74" points="48.2,28.9 49.5,26.9 47.5,28.1 45.5,26.8 46.7,28.8 45.4,30.8 47.4,29.6 49.4,30.9 	"/>
	<polygon class="st74" points="7.7,34.3 9,32.3 7,33.5 5,32.2 6.2,34.3 4.9,36.2 6.9,35 8.9,36.4 	"/>
	<circle class="st80" cx="8.4" cy="28.1" r="0.6"/>
	<circle class="st80" cx="25.9" cy="40.6" r="0.6"/>
	<circle class="st80" cx="42.4" cy="28.8" r="0.6"/>
	<circle class="st80" cx="30.2" cy="10.2" r="0.6"/>
	<circle class="st80" cx="23.4" cy="5.2" r="0.6"/>
</g>
</svg>
