<?xml version="1.0" encoding="utf-8"?>
<!-- Generator: Adobe Illustrator 23.0.1, SVG Export Plug-In . SVG Version: 6.00 Build 0)  -->
<svg version="1.1" id="圖層_1" xmlns="http://www.w3.org/2000/svg" xmlns:xlink="http://www.w3.org/1999/xlink" x="0px" y="0px"
	 viewBox="0 0 384 320" style="enable-background:new 0 0 384 320;" xml:space="preserve">
<style type="text/css">
	.st0{fill:#8F8F8F;}
	.st1{fill:#444047;}
	.st2{fill:#E0E0E0;}
	.st3{fill:#F7F7F7;}
	.st4{clip-path:url(#SVGID_2_);fill:#EFEFEF;}
	.st5{clip-path:url(#SVGID_2_);}
	.st6{fill:#FFFFFF;}
	.st7{fill:#E2E2E2;}
	.st8{fill:#CECECE;}
	.st9{fill:none;stroke:#FFFFFF;stroke-miterlimit:10;}
	.st10{fill:url(#SVGID_3_);}
	.st11{clip-path:url(#SVGID_5_);fill:url(#SVGID_6_);}
	.st12{clip-path:url(#SVGID_5_);fill:#FFFFFF;}
	.st13{clip-path:url(#SVGID_5_);fill:url(#SVGID_7_);}
	.st14{clip-path:url(#SVGID_5_);}
	.st15{fill:#C4C4C4;}
	.st16{stroke:#FFFFFF;stroke-width:0.7804;stroke-miterlimit:10;}
	.st17{fill:#F9E0AF;stroke:#FFFFFF;stroke-width:0.7804;stroke-miterlimit:10;}
	.st18{fill:#E2C89A;stroke:#FFFFFF;stroke-width:0.7804;stroke-miterlimit:10;}
	.st19{fill:#FFFFFF;stroke:#FFFFFF;stroke-width:0.7804;stroke-miterlimit:10;}
	.st20{fill:#F9E0AF;}
	.st21{fill:#E2C89A;}
	.st22{fill:#E8E8E8;}
	.st23{fill:#E2E3E7;stroke:#FFFFFF;stroke-width:0.886;stroke-miterlimit:10;}
	.st24{fill:#D487D8;}
	.st25{fill:#F9E0AF;stroke:#FFFFFF;stroke-width:0.886;stroke-miterlimit:10;}
	.st26{fill:#FFFFFF;stroke:#FFFFFF;stroke-width:0.886;stroke-miterlimit:10;}
	.st27{clip-path:url(#SVGID_5_);fill:none;stroke:#AAAAAA;stroke-miterlimit:10;}
	.st28{clip-path:url(#SVGID_5_);fill:#E2E2E2;}
	.st29{clip-path:url(#SVGID_5_);fill:none;stroke:#FFFFFF;stroke-miterlimit:10;}
	.st30{fill:url(#SVGID_8_);}
	.st31{fill:none;stroke:#51C9D6;stroke-width:1.2;stroke-miterlimit:10;}
	.st32{fill:#FFFFFF;stroke:#D85092;stroke-miterlimit:10;}
	.st33{fill:url(#SVGID_9_);}
	.st34{fill:#41B5B0;}
	.st35{fill:#2A3B49;}
	.st36{fill:#F2F2F2;}
	.st37{fill:none;stroke:#41B5B0;stroke-width:3;stroke-linecap:round;stroke-miterlimit:10;}
	.st38{fill:#3DA39B;stroke:#FFFFFF;stroke-width:2;stroke-linecap:round;stroke-linejoin:round;stroke-miterlimit:10;}
	.st39{fill:#44BAB4;stroke:#FFFFFF;stroke-width:2;stroke-linecap:round;stroke-linejoin:round;stroke-miterlimit:10;}
	.st40{stroke:#FFFFFF;stroke-width:2;stroke-miterlimit:10;}
	.st41{fill:#BFA882;}
	.st42{fill:#A358A5;}
	.st43{fill:#2D776E;stroke:#FFFFFF;stroke-width:2;stroke-miterlimit:10;}
	.st44{fill:#F9E0AF;stroke:#FFFFFF;stroke-width:2;stroke-miterlimit:10;}
	.st45{fill:#E2C89A;stroke:#FFFFFF;stroke-width:2;stroke-miterlimit:10;}
	.st46{fill:#348C83;stroke:#FFFFFF;stroke-width:2;stroke-miterlimit:10;}
	.st47{fill:url(#SVGID_10_);}
	.st48{fill:url(#SVGID_11_);}
	.st49{fill:#E2E3E7;stroke:#FFFFFF;stroke-width:2;stroke-miterlimit:10;}
	.st50{fill:#44BAB4;stroke:#FFFFFF;stroke-width:2;stroke-miterlimit:10;}
	.st51{fill:#FEFEFE;stroke:#FFFFFF;stroke-width:2;stroke-miterlimit:10;}
	.st52{fill:#FFFFFF;stroke:#FFFFFF;stroke-width:2;stroke-miterlimit:10;}
	.st53{fill:url(#SVGID_12_);stroke:#FFFFFF;stroke-width:2;stroke-miterlimit:10;}
	.st54{fill:url(#SVGID_13_);stroke:#FFFFFF;stroke-width:2;stroke-miterlimit:10;}
	.st55{fill:none;stroke:#D85092;stroke-miterlimit:10;}
	.st56{fill:#77B3D4;}
	.st57{opacity:0.2;}
	.st58{fill:#231F20;}
	.st59{fill:#C75C5C;}
	.st60{fill:#4F5D73;}
	.st61{fill:#E0E0D1;}
	.st62{fill:#FF7D00;}
	.st63{fill:#59616A;}
	.st64{fill:#A8B6C0;}
	.st65{fill:#9DADB8;}
	.st66{fill:#B3BFC8;}
	.st67{fill:#E4E8EB;}
	.st68{fill:#BEC8D0;}
	.st69{fill:#C8D1D7;}
	.st70{fill:#FF50CE;}
	.st71{opacity:0.3;}
	.st72{fill:none;}
	.st73{fill:#010101;}
	.st74{fill:#FECD0E;}
	.st75{opacity:0.73;}
	.st76{clip-path:url(#SVGID_15_);fill:url(#SVGID_16_);}
	.st77{clip-path:url(#SVGID_18_);fill:url(#SVGID_19_);}
	.st78{opacity:0.7;}
	.st79{clip-path:url(#SVGID_21_);fill:url(#SVGID_22_);}
	.st80{fill:#FFE48D;}
	.st81{clip-path:url(#SVGID_24_);fill:url(#SVGID_25_);}
	.st82{clip-path:url(#SVGID_27_);fill:url(#SVGID_28_);}
	.st83{clip-path:url(#SVGID_30_);fill:url(#SVGID_31_);}
	.st84{fill:#DEB3E2;}
	.st85{fill:#95CE9B;}
	.st86{fill:none;stroke:#FFFFFF;stroke-width:4;stroke-linecap:round;stroke-linejoin:round;stroke-miterlimit:10;}
	.st87{fill:#F3CC1B;}
	.st88{fill:#EFEAF4;}
	.st89{fill:#757575;}
	.st90{fill:#C9A50D;}
	.st91{clip-path:url(#SVGID_33_);fill:url(#SVGID_34_);}
	.st92{fill:none;stroke:#BABABA;stroke-width:6.7359;stroke-miterlimit:10;}
	.st93{clip-path:url(#SVGID_36_);fill:url(#SVGID_37_);}
	.st94{clip-path:url(#SVGID_39_);fill:url(#SVGID_40_);}
	.st95{clip-path:url(#SVGID_42_);fill:url(#SVGID_43_);}
	.st96{fill:url(#SVGID_44_);}
	.st97{opacity:0.55;fill:url(#SVGID_45_);}
	.st98{fill:#E6E6E6;}
	.st99{fill:#FFB8B8;}
	.st100{fill:#575A89;}
	.st101{fill:#2F2E41;}
	.st102{fill:#CFCCE0;}
	.st103{opacity:0.2;enable-background:new    ;}
	.st104{fill:#A0616A;}
	.st105{fill:#CCCCCC;}
	.st106{fill:#F27092;}
	.st107{opacity:0.1;fill:#A358A5;enable-background:new    ;}
	.st108{opacity:0.1;}
	.st109{opacity:0.55;fill:url(#SVGID_46_);}
	.st110{fill:#3F3D56;}
	.st111{opacity:0.8;fill:#FA5959;enable-background:new    ;}
	.st112{opacity:0.8;fill:#FED253;enable-background:new    ;}
	.st113{opacity:0.8;fill:#8CCF4D;enable-background:new    ;}
	.st114{opacity:0.2;fill:#A358A5;enable-background:new    ;}
	.st115{fill:none;stroke:#3F3D56;stroke-width:0.4707;stroke-miterlimit:10;}
	.st116{opacity:0.1;enable-background:new    ;}
	.st117{fill:#46455B;}
	.st118{fill:#A8A8A8;}
	.st119{fill:url(#SVGID_47_);}
	.st120{fill:#65617D;}
	.st121{opacity:5.000000e-02;enable-background:new    ;}
	.st122{fill:#EE8E9E;}
	.st123{fill:#E3E8F4;}
	.st124{fill:#E6E8EC;}
	.st125{fill:#565387;}
	.st126{clip-path:url(#SVGID_49_);fill:#EFEFEF;}
	.st127{clip-path:url(#SVGID_49_);}
	.st128{fill:none;stroke:#FFFFFF;stroke-width:4;stroke-miterlimit:10;}
	.st129{fill:#F4E49F;}
	.st130{fill:#FFFFFF;stroke:#AFAFAF;stroke-miterlimit:10;}
	.st131{fill:#80D5E8;}
	.st132{fill:#CCF9FF;}
	.st133{fill:#F5F9FC;}
	.st134{fill:#BDEAF2;}
	.st135{fill:#BD87D6;}
	.st136{fill:url(#SVGID_50_);}
	.st137{clip-path:url(#SVGID_52_);fill:url(#SVGID_53_);}
	.st138{clip-path:url(#SVGID_52_);fill:#FFFFFF;}
	.st139{clip-path:url(#SVGID_52_);fill:none;}
	.st140{clip-path:url(#SVGID_52_);fill:#BD87D6;}
	.st141{clip-path:url(#SVGID_52_);fill:none;stroke:#AAAAAA;stroke-width:4;stroke-miterlimit:10;}
	.st142{clip-path:url(#SVGID_52_);fill:#A8B6C0;}
	.st143{clip-path:url(#SVGID_52_);fill:#80D5E8;}
	.st144{clip-path:url(#SVGID_52_);fill:#CCF9FF;}
	.st145{clip-path:url(#SVGID_52_);fill:#F5F9FC;}
	.st146{clip-path:url(#SVGID_52_);fill:#BDEAF2;}
	.st147{fill:none;stroke:#E8C82A;stroke-width:13.3141;stroke-miterlimit:10;}
	.st148{fill:#F478BC;}
	.st149{fill:#F4A6D4;}
	.st150{clip-path:url(#SVGID_55_);fill:url(#SVGID_56_);}
	.st151{clip-path:url(#SVGID_58_);fill:url(#SVGID_59_);}
	.st152{clip-path:url(#SVGID_61_);fill:url(#SVGID_62_);}
	.st153{clip-path:url(#SVGID_64_);fill:url(#SVGID_65_);}
	.st154{clip-path:url(#SVGID_67_);fill:url(#SVGID_68_);}
	.st155{clip-path:url(#SVGID_70_);fill:url(#SVGID_71_);}
	.st156{clip-path:url(#SVGID_73_);fill:url(#SVGID_74_);}
	.st157{clip-path:url(#SVGID_76_);fill:url(#SVGID_77_);}
	.st158{clip-path:url(#SVGID_79_);fill:url(#SVGID_80_);}
	.st159{clip-path:url(#SVGID_82_);fill:url(#SVGID_83_);}
	.st160{fill:url(#SVGID_84_);}
</style>
<g>
	<g class="st75">
		<defs>
			<circle id="SVGID_63_" class="st75" cx="69.1" cy="69.2" r="68.6"/>
		</defs>
		<clipPath id="SVGID_2_">
			<use xlink:href="#SVGID_63_"  style="overflow:visible;"/>
		</clipPath>
		<linearGradient id="SVGID_3_" gradientUnits="userSpaceOnUse" x1="-49.6129" y1="131.7663" x2="399.1111" y2="131.7663">
			<stop  offset="0" style="stop-color:#F3CC1B"/>
			<stop  offset="1" style="stop-color:#EDD988"/>
		</linearGradient>
		<rect x="-49.6" y="-60.1" style="clip-path:url(#SVGID_2_);fill:url(#SVGID_3_);" width="448.7" height="383.7"/>
	</g>
	<g>
		<defs>
			<circle id="SVGID_66_" cx="196.4" cy="196.6" r="89.6"/>
		</defs>
		<clipPath id="SVGID_5_">
			<use xlink:href="#SVGID_66_"  style="overflow:visible;"/>
		</clipPath>
		<linearGradient id="SVGID_6_" gradientUnits="userSpaceOnUse" x1="-100.8351" y1="135.3992" x2="409.8784" y2="135.3992">
			<stop  offset="0" style="stop-color:#F3CC1B"/>
			<stop  offset="1" style="stop-color:#EDD988"/>
		</linearGradient>
		<rect x="-100.8" y="-82.9" class="st11" width="510.7" height="436.7"/>
	</g>
	<g class="st78">
		<defs>
			<circle id="SVGID_69_" class="st78" cx="326.3" cy="96.5" r="53.9"/>
		</defs>
		<clipPath id="SVGID_7_">
			<use xlink:href="#SVGID_69_"  style="overflow:visible;"/>
		</clipPath>
		<linearGradient id="SVGID_8_" gradientUnits="userSpaceOnUse" x1="-134.4691" y1="151.6543" x2="409.5453" y2="151.6543">
			<stop  offset="0" style="stop-color:#F3CC1B"/>
			<stop  offset="1" style="stop-color:#EDD988"/>
		</linearGradient>
		<rect x="-134.5" y="-80.9" style="clip-path:url(#SVGID_7_);fill:url(#SVGID_8_);" width="544" height="465.2"/>
	</g>
	<g>
		<g>
			<path class="st6" d="M61.3,67.6c9.7,0,17.6-7.9,17.6-17.6S71,32.4,61.3,32.4S43.7,40.2,43.7,50S51.6,67.6,61.3,67.6z M73.6,72
				h-2.3c-3.1,1.4-6.4,2.2-10,2.2c-3.6,0-7-0.8-10-2.2H49c-10.2,0-18.5,8.3-18.5,18.5v5.7c0,3.6,3,6.6,6.6,6.6h37.8
				c-0.3-0.9-0.5-1.9-0.4-2.9l0.9-8.4l0.2-1.5l1.1-1.1l10.6-10.6C84,74.4,79.1,72,73.6,72z M79.9,91.9l-0.9,8.4
				c-0.2,1.4,1,2.6,2.4,2.4l8.4-0.9l18.9-18.9L98.8,73L79.9,91.9z M117.5,69.3l-5.2-5.2c-1.3-1.3-3.4-1.3-4.6,0l-5.2,5.2l-0.6,0.6
				l9.9,9.9l5.7-5.7C118.8,72.7,118.8,70.6,117.5,69.3z"/>
		</g>
	</g>
	<polygon class="st24" points="227.1,21.8 237.3,6.4 221.4,15.8 206,5.5 215.4,21.4 205.1,36.9 221,27.5 236.5,37.7 	"/>
	<polygon class="st24" points="373.2,222.7 383.5,207.3 367.6,216.7 352.1,206.4 361.5,222.3 351.3,237.8 367.2,228.3 382.6,238.6 	
		"/>
	<polygon class="st24" points="56.8,265.4 67.1,250 51.2,259.4 35.7,249.1 45.2,265 34.9,280.5 50.8,271 66.2,281.3 	"/>
	<circle class="st84" cx="62.6" cy="216.6" r="5"/>
	<circle class="st84" cx="198.7" cy="314.4" r="5"/>
	<circle class="st84" cx="327.9" cy="222.5" r="5"/>
	<circle class="st84" cx="233" cy="77.3" r="5"/>
	<circle class="st84" cx="179.5" cy="37.7" r="5"/>
	<g>
		<path class="st6" d="M238.2,206.2l9-39.6c0.7-2.9-1.5-5.6-4.5-5.6h-74.8l-1.7-8.5c-0.4-2.1-2.3-3.7-4.5-3.7h-19.5
			c-2.5,0-4.6,2-4.6,4.6v3c0,2.5,2,4.6,4.6,4.6h13.3l13.4,65.4c-3.2,1.8-5.4,5.3-5.4,9.3c0,5.9,4.8,10.7,10.7,10.7
			s10.7-4.8,10.7-10.7c0-3-1.2-5.7-3.2-7.6h39.9c-2,1.9-3.2,4.6-3.2,7.6c0,5.9,4.8,10.7,10.7,10.7s10.7-4.8,10.7-10.7
			c0-4.2-2.5-7.9-6-9.6l1.1-4.6c0.7-2.9-1.5-5.6-4.5-5.6h-51.1l-1.2-6.1h55.9C235.9,209.8,237.8,208.3,238.2,206.2z"/>
	</g>
	<g>
		<path class="st6" d="M335.2,85.1l-5.2,5.2l0-10.5L335.2,85.1 M330,111.9l5.3-5.3l-5.2-5.2L330,111.9z M350.3,95.9
			c0,25-8.8,30.8-22.5,30.8s-24.2-5.7-24.2-30.8s10.2-31.6,23.9-31.6C341.2,64.3,350.3,70.8,350.3,95.9z M330.9,95.9l9.7-10.8
			l-15.2-16.4v21.5l-9-9l-3.3,3.3l11.3,11.3l-11.3,11.3l3.3,3.3l9-9l0.3,20.7l15.5-15.5L330.9,95.9L330.9,95.9z"/>
	</g>
</g>
</svg>
