<?xml version="1.0" encoding="utf-8"?>
<!-- Generator: Adobe Illustrator 23.0.1, SVG Export Plug-In . SVG Version: 6.00 Build 0)  -->
<svg version="1.1" id="圖層_1" xmlns="http://www.w3.org/2000/svg" xmlns:xlink="http://www.w3.org/1999/xlink" x="0px" y="0px"
	 viewBox="0 0 350 330" style="enable-background:new 0 0 350 330;" xml:space="preserve">
<style type="text/css">
	.st0{fill:#8F8F8F;}
	.st1{fill:#444047;}
	.st2{fill:#E0E0E0;}
	.st3{fill:#F7F7F7;}
	.st4{clip-path:url(#SVGID_2_);fill:#EFEFEF;}
	.st5{clip-path:url(#SVGID_2_);}
	.st6{fill:#FFFFFF;}
	.st7{fill:#E2E2E2;}
	.st8{fill:#CECECE;}
	.st9{fill:none;stroke:#FFFFFF;stroke-miterlimit:10;}
	.st10{fill:url(#SVGID_3_);}
	.st11{clip-path:url(#SVGID_5_);fill:url(#SVGID_6_);}
	.st12{clip-path:url(#SVGID_5_);fill:#FFFFFF;}
	.st13{clip-path:url(#SVGID_5_);fill:url(#SVGID_7_);}
	.st14{clip-path:url(#SVGID_5_);}
	.st15{fill:#C4C4C4;}
	.st16{stroke:#FFFFFF;stroke-width:0.7804;stroke-miterlimit:10;}
	.st17{fill:#F9E0AF;stroke:#FFFFFF;stroke-width:0.7804;stroke-miterlimit:10;}
	.st18{fill:#E2C89A;stroke:#FFFFFF;stroke-width:0.7804;stroke-miterlimit:10;}
	.st19{fill:#FFFFFF;stroke:#FFFFFF;stroke-width:0.7804;stroke-miterlimit:10;}
	.st20{fill:#F9E0AF;}
	.st21{fill:#E2C89A;}
	.st22{fill:#E8E8E8;}
	.st23{fill:#E2E3E7;stroke:#FFFFFF;stroke-width:0.886;stroke-miterlimit:10;}
	.st24{fill:#D487D8;}
	.st25{fill:#F9E0AF;stroke:#FFFFFF;stroke-width:0.886;stroke-miterlimit:10;}
	.st26{fill:#FFFFFF;stroke:#FFFFFF;stroke-width:0.886;stroke-miterlimit:10;}
	.st27{clip-path:url(#SVGID_5_);fill:none;stroke:#AAAAAA;stroke-miterlimit:10;}
	.st28{clip-path:url(#SVGID_5_);fill:#E2E2E2;}
	.st29{clip-path:url(#SVGID_5_);fill:none;stroke:#FFFFFF;stroke-miterlimit:10;}
	.st30{fill:url(#SVGID_8_);}
	.st31{fill:none;stroke:#51C9D6;stroke-width:1.2;stroke-miterlimit:10;}
	.st32{fill:#FFFFFF;stroke:#D85092;stroke-miterlimit:10;}
	.st33{fill:url(#SVGID_9_);}
	.st34{fill:#41B5B0;}
	.st35{fill:#2A3B49;}
	.st36{fill:#F2F2F2;}
	.st37{fill:none;stroke:#41B5B0;stroke-width:3;stroke-linecap:round;stroke-miterlimit:10;}
	.st38{fill:#3DA39B;stroke:#FFFFFF;stroke-width:2;stroke-linecap:round;stroke-linejoin:round;stroke-miterlimit:10;}
	.st39{fill:#44BAB4;stroke:#FFFFFF;stroke-width:2;stroke-linecap:round;stroke-linejoin:round;stroke-miterlimit:10;}
	.st40{stroke:#FFFFFF;stroke-width:2;stroke-miterlimit:10;}
	.st41{fill:#BFA882;}
	.st42{fill:#A358A5;}
	.st43{fill:#2D776E;stroke:#FFFFFF;stroke-width:2;stroke-miterlimit:10;}
	.st44{fill:#F9E0AF;stroke:#FFFFFF;stroke-width:2;stroke-miterlimit:10;}
	.st45{fill:#E2C89A;stroke:#FFFFFF;stroke-width:2;stroke-miterlimit:10;}
	.st46{fill:#348C83;stroke:#FFFFFF;stroke-width:2;stroke-miterlimit:10;}
	.st47{fill:url(#SVGID_10_);}
	.st48{fill:url(#SVGID_11_);}
	.st49{fill:#E2E3E7;stroke:#FFFFFF;stroke-width:2;stroke-miterlimit:10;}
	.st50{fill:#44BAB4;stroke:#FFFFFF;stroke-width:2;stroke-miterlimit:10;}
	.st51{fill:#FEFEFE;stroke:#FFFFFF;stroke-width:2;stroke-miterlimit:10;}
	.st52{fill:#FFFFFF;stroke:#FFFFFF;stroke-width:2;stroke-miterlimit:10;}
	.st53{fill:url(#SVGID_12_);stroke:#FFFFFF;stroke-width:2;stroke-miterlimit:10;}
	.st54{fill:url(#SVGID_13_);stroke:#FFFFFF;stroke-width:2;stroke-miterlimit:10;}
	.st55{fill:none;stroke:#D85092;stroke-miterlimit:10;}
	.st56{fill:#77B3D4;}
	.st57{opacity:0.2;}
	.st58{fill:#231F20;}
	.st59{fill:#C75C5C;}
	.st60{fill:#4F5D73;}
	.st61{fill:#E0E0D1;}
	.st62{fill:#FF7D00;}
	.st63{fill:#59616A;}
	.st64{fill:#A8B6C0;}
	.st65{fill:#9DADB8;}
	.st66{fill:#B3BFC8;}
	.st67{fill:#E4E8EB;}
	.st68{fill:#BEC8D0;}
	.st69{fill:#C8D1D7;}
	.st70{fill:#FF50CE;}
	.st71{opacity:0.3;}
	.st72{fill:none;}
	.st73{fill:#010101;}
	.st74{fill:#FECD0E;}
	.st75{opacity:0.73;}
	.st76{clip-path:url(#SVGID_15_);fill:url(#SVGID_16_);}
	.st77{clip-path:url(#SVGID_18_);fill:url(#SVGID_19_);}
	.st78{opacity:0.7;}
	.st79{clip-path:url(#SVGID_21_);fill:url(#SVGID_22_);}
	.st80{fill:#FFE48D;}
	.st81{clip-path:url(#SVGID_24_);fill:url(#SVGID_25_);}
	.st82{clip-path:url(#SVGID_27_);fill:url(#SVGID_28_);}
	.st83{clip-path:url(#SVGID_30_);fill:url(#SVGID_31_);}
	.st84{fill:#DEB3E2;}
	.st85{fill:#95CE9B;}
	.st86{fill:none;stroke:#FFFFFF;stroke-width:4;stroke-linecap:round;stroke-linejoin:round;stroke-miterlimit:10;}
	.st87{fill:#F3CC1B;}
	.st88{fill:#EFEAF4;}
	.st89{fill:#757575;}
	.st90{fill:#C9A50D;}
	.st91{clip-path:url(#SVGID_33_);fill:url(#SVGID_34_);}
	.st92{fill:none;stroke:#BABABA;stroke-width:6.7359;stroke-miterlimit:10;}
	.st93{clip-path:url(#SVGID_36_);fill:url(#SVGID_37_);}
	.st94{clip-path:url(#SVGID_39_);fill:url(#SVGID_40_);}
	.st95{clip-path:url(#SVGID_42_);fill:url(#SVGID_43_);}
	.st96{fill:url(#SVGID_44_);}
	.st97{opacity:0.55;fill:url(#SVGID_45_);}
	.st98{fill:#E6E6E6;}
	.st99{fill:#FFB8B8;}
	.st100{fill:#575A89;}
	.st101{fill:#2F2E41;}
	.st102{fill:#CFCCE0;}
	.st103{opacity:0.2;enable-background:new    ;}
	.st104{fill:#A0616A;}
	.st105{fill:#CCCCCC;}
	.st106{fill:#F27092;}
	.st107{opacity:0.1;fill:#A358A5;enable-background:new    ;}
	.st108{opacity:0.1;}
	.st109{opacity:0.55;fill:url(#SVGID_46_);}
	.st110{fill:#3F3D56;}
	.st111{opacity:0.8;fill:#FA5959;enable-background:new    ;}
	.st112{opacity:0.8;fill:#FED253;enable-background:new    ;}
	.st113{opacity:0.8;fill:#8CCF4D;enable-background:new    ;}
	.st114{opacity:0.2;fill:#A358A5;enable-background:new    ;}
	.st115{fill:none;stroke:#3F3D56;stroke-width:0.4707;stroke-miterlimit:10;}
	.st116{opacity:0.1;enable-background:new    ;}
	.st117{fill:#46455B;}
	.st118{fill:#A8A8A8;}
	.st119{fill:url(#SVGID_47_);}
	.st120{fill:#65617D;}
	.st121{opacity:5.000000e-02;enable-background:new    ;}
	.st122{fill:#EE8E9E;}
	.st123{fill:#E3E8F4;}
	.st124{fill:#E6E8EC;}
	.st125{fill:#565387;}
	.st126{clip-path:url(#SVGID_49_);fill:#EFEFEF;}
	.st127{clip-path:url(#SVGID_49_);}
	.st128{fill:none;stroke:#FFFFFF;stroke-width:4;stroke-miterlimit:10;}
	.st129{fill:#F4E49F;}
	.st130{fill:#FFFFFF;stroke:#AFAFAF;stroke-miterlimit:10;}
	.st131{fill:#80D5E8;}
	.st132{fill:#CCF9FF;}
	.st133{fill:#F5F9FC;}
	.st134{fill:#BDEAF2;}
	.st135{fill:#BD87D6;}
	.st136{fill:url(#SVGID_50_);}
	.st137{clip-path:url(#SVGID_52_);fill:url(#SVGID_53_);}
	.st138{clip-path:url(#SVGID_52_);fill:#FFFFFF;}
	.st139{clip-path:url(#SVGID_52_);fill:none;}
	.st140{clip-path:url(#SVGID_52_);fill:#BD87D6;}
	.st141{clip-path:url(#SVGID_52_);fill:none;stroke:#AAAAAA;stroke-width:4;stroke-miterlimit:10;}
	.st142{clip-path:url(#SVGID_52_);fill:#A8B6C0;}
	.st143{clip-path:url(#SVGID_52_);fill:#80D5E8;}
	.st144{clip-path:url(#SVGID_52_);fill:#CCF9FF;}
	.st145{clip-path:url(#SVGID_52_);fill:#F5F9FC;}
	.st146{clip-path:url(#SVGID_52_);fill:#BDEAF2;}
	.st147{fill:none;stroke:#E8C82A;stroke-width:13.3141;stroke-miterlimit:10;}
	.st148{fill:#F478BC;}
	.st149{fill:#F4A6D4;}
	.st150{clip-path:url(#SVGID_55_);fill:url(#SVGID_56_);}
	.st151{clip-path:url(#SVGID_58_);fill:url(#SVGID_59_);}
	.st152{clip-path:url(#SVGID_61_);fill:url(#SVGID_62_);}
	.st153{clip-path:url(#SVGID_64_);fill:url(#SVGID_65_);}
	.st154{clip-path:url(#SVGID_67_);fill:url(#SVGID_68_);}
	.st155{clip-path:url(#SVGID_70_);fill:url(#SVGID_71_);}
	.st156{clip-path:url(#SVGID_73_);fill:url(#SVGID_74_);}
	.st157{clip-path:url(#SVGID_76_);fill:url(#SVGID_77_);}
	.st158{clip-path:url(#SVGID_79_);fill:url(#SVGID_80_);}
	.st159{clip-path:url(#SVGID_82_);fill:url(#SVGID_83_);}
	.st160{fill:url(#SVGID_84_);}
	.st161{opacity:0.55;fill:url(#SVGID_85_);}
</style>
<g>
	<linearGradient id="SVGID_2_" gradientUnits="userSpaceOnUse" x1="24.2614" y1="152.08" x2="325.7386" y2="152.08">
		<stop  offset="0" style="stop-color:#FFECAA"/>
		<stop  offset="1" style="stop-color:#F0D8D8"/>
	</linearGradient>
	<circle style="opacity:0.55;fill:url(#SVGID_2_);" cx="175" cy="152.1" r="150.7"/>
	<g>
		<ellipse class="st98" cx="287.6" cy="319.9" rx="57.7" ry="7.9"/>
		<ellipse class="st98" cx="62.5" cy="320.7" rx="57.8" ry="7.9"/>
		<path class="st99" d="M101.1,202.1l1.5,3.1c0,0,8.4,11.3,3.2,13s-8-10.7-8-10.7l-1.4-1.7L101.1,202.1z"/>
		<path class="st100" d="M91.4,143.9l1.4-0.6c0,0,1.6,0.6,1.6,3.1s-2,39.4-2,39.4l4,20.2l-5.6,1l-8.6-18.7L91.4,143.9z"/>
		<path class="st24" d="M91.4,143.9l1.4-0.6c0,0,1.6,0.6,1.6,3.1s-2,39.4-2,39.4l10.9,17.4l-7.1,5.1l-13.9-19.9L91.4,143.9z"/>
		<path class="st101" d="M90.4,202.5c0,0,6.6,2.5,6.1,7.1s-7.1,94.9-7.1,94.9l2,10.1l-19.2,0.5l-0.5-65.1L58,315.1H38.8l13.6-114.6
			L90.4,202.5z"/>
		<path class="st101" d="M88.8,312.6l4.5,4.5c0,0,10.6,2,8.1,5.6c-2.5,3.5-28.8-1-28.8-1l0.5-8.1L88.8,312.6z"/>
		<path class="st101" d="M56,312.6l4.5,4.5c0,0,10.6,2,8.1,5.6c-2.5,3.5-28.8-1-28.8-1l0.5-8.1L56,312.6z"/>
		<circle class="st99" cx="74.2" cy="113.6" r="12.1"/>
		<polygon class="st99" points="81.8,120.6 80.8,141.4 65.1,132.3 67.1,120.6 		"/>
		<polygon class="st102" points="64.6,127.2 79.2,137.8 81.8,130.2 86.3,142.4 83.8,164.1 		"/>
		<path class="st24" d="M64.6,125.7l16.2,22.2l0.6-18.6l5,3.9v4l7.1,6.6l-2.5,25.3l-0.5,29.8c0,0,3,2.5,2,4c-1,1.5-5.1,5.1-9.6,5.1
			S50,204.5,50,202.5s1-28.3,1-28.3v-35.4l12.1-9.1L64.6,125.7z"/>
		<polygon class="st99" points="48.9,209.5 55.5,219.1 58,208 55,206 		"/>
		
			<rect x="62.4" y="236.8" transform="matrix(0.3463 -0.9381 0.9381 0.3463 -172.6917 226.8094)" class="st103" width="28" height="1"/>
		<path class="st101" d="M66.9,101.7c0,0,1.5-7.6,10.1-6.1l-1,0.5c0,0,8.1-1,7.1,3.5c0,0,6.6,4,5.1,8.6c-0.9,2.6-1.6,5.3-2,8.1
			l-1.5-1.5c0,0-1.5-10.1-10.6-9.1c-6.8,0.8-9.6,4-10.3,6.3c-0.3,1.1-0.7,2.2-1.2,3.2l-0.6,0.1C61.8,115.3,58.8,104.2,66.9,101.7z"
			/>
		<path class="st24" d="M56.5,138.3l-4.6-0.2l-1,0.7c-1.1,1.1-2.1,2.3-3,3.5c-1,1.5-14.1,38.4-14.1,38.4c-0.2,2.2,0.1,4.5,1,6.6
			c1.5,3.5,13.6,24.7,13.6,24.7l9.1-5.6l-12.1-24.7l8.6-12.1L56.5,138.3z"/>
		<polygon class="st104" points="270.5,296.8 270.5,310.4 278.6,310.4 279.7,296.8 		"/>
		<polygon class="st104" points="289.8,297.6 293.1,305.2 298.5,307.4 299.6,292.1 295.2,290 		"/>
		<path class="st101" d="M296.9,304.1c0,0-0.5-3.4-5.1-2l0.8,10.2c0,0-3.8,11.4,1.6,10.3c5.4-1.1,8.7-11.4,8.7-11.4l3.8-17.4
			l-9.2-2.7L296.9,304.1z"/>
		<path class="st101" d="M262.6,188.8c0,0-7.6,57.7-4.9,64.2c2.7,6.5,31.3,48.7,31.3,48.7l12.5-16.3l-28-35.1l26.1-35.9l2.2-21.8
			L262.6,188.8z"/>
		<polygon class="st101" points="292.5,209.4 299.7,213.2 299.6,214.3 281.9,302.8 268.3,300 277.3,237.7 		"/>
		<path class="st101" d="M269.7,306.3l-3.3,4.9c0,0-7.1,12,0.5,12s10.9,0,11.4-2.7c0.4-1.9,0.9-3.7,1.6-5.4l-0.5-7.1L269.7,306.3z"
			/>
		<circle class="st104" cx="290.9" cy="114.2" r="12"/>
		<path class="st104" d="M281.1,118c0,0,1.6,9.2-3.3,10.9c-4.9,1.6,6,23.4,6,23.4l12.5-20.7c0,0-3.3-7.1-1.1-10.3L281.1,118z"/>
		<path class="st24" d="M283.8,143.1l-3-17.7l-5.8,3.6l-15.2,8.7l6,25.6l-2.2,15.8c0,0-2.7,4.9-2.2,7.1c0.5,2.2-0.5,3.3,0,3.8
			c0.5,0.5,27.7,4.9,35.9,8.2c8.2,3.3,9.2,4.4,8.7,1.6c-0.5-2.7-6.5-15.8-6.5-15.8l4.9-21.8l6.5-19l-15.9-14.6L283.8,143.1z"/>
		<path class="st104" d="M307.2,167l3.8,10.3l-9.8,18l-3.2,2.5c-1,0.8-1.5,2.1-1.2,3.4l2.2,8.3l5.7-8.5c0,0,15.5-18.8,15-23.6
			c-0.5-4.9-2.2-12.5-2.2-12.5L307.2,167z"/>
		<path class="st104" d="M253.3,158.3l-2.7,13.6l-10.3,25.6c0,0-11.4,10.9-6,13.1c5.4,2.2,12-10.9,12-10.9l13.1-24.5l4.9-14.7
			L253.3,158.3z"/>
		<path class="st24" d="M305,142l4.4-0.4l1.6,1.5c0,0,9.2,20.7,8.2,22.9c-1.1,2.2-12,3.3-12,3.3l-4.4-13.1L305,142z"/>
		<path class="st24" d="M263.7,138.2L261,137l-1.1,0.6c0,0-10.9,21.8-8.2,22.9c2.7,1.1,15.8,2.7,15.8,2.7L263.7,138.2z"/>
		<polygon class="st103" points="275.1,252.8 271.8,275.9 268.7,271.1 		"/>
		<path class="st101" d="M298.7,107.1c0,0,1.2,3.2-4.4,1.5c0,0-2.2,1.1-2.1-0.8c0,0-3.1,2.9-3.6,1c-0.6-1.9-2.2,0.5-2.2,0.5
			l-1.2-3.2l-1.5,1.7l-5-0.3c0,0-0.6-12.4,16.4-10c17,2.4,7.2,21.3,7.2,21.3s0.1-3.5-1.4-1.8S298.7,107.1,298.7,107.1z"/>
		<path class="st87" d="M112.6,204.9v52.2h131.3v-52.2H112.6z"/>
		<rect x="120.7" y="241" class="st6" width="70.6" height="7.4"/>
		<rect x="120.7" y="227.3" class="st6" width="70.6" height="7.4"/>
		<rect x="120.7" y="213.6" class="st6" width="115.1" height="7.4"/>
	</g>
	<g>
		<path class="st85" d="M166.9,180.6l-34.7-34.7c-2.1-2.1-2.1-5.5,0-7.6l7.6-7.6c2.1-2.1,5.5-2.1,7.6,0l23.4,23.4l50.1-50.1
			c2.1-2.1,5.5-2.1,7.6,0l7.6,7.6c2.1,2.1,2.1,5.5,0,7.6l-61.4,61.4C172.3,182.6,169,182.6,166.9,180.6L166.9,180.6z"/>
	</g>
</g>
</svg>
