<?xml version="1.0" encoding="utf-8"?>
<!-- Generator: Adobe Illustrator 23.0.1, SVG Export Plug-In . SVG Version: 6.00 Build 0)  -->
<svg version="1.1" id="圖層_1" xmlns="http://www.w3.org/2000/svg" xmlns:xlink="http://www.w3.org/1999/xlink" x="0px" y="0px"
	 viewBox="0 0 290 417.9" style="enable-background:new 0 0 290 417.9;" xml:space="preserve">
<style type="text/css">
	.st0{fill:#8F8F8F;}
	.st1{fill:#444047;}
	.st2{fill:#E0E0E0;}
	.st3{fill:#F7F7F7;}
	.st4{clip-path:url(#SVGID_2_);fill:#EFEFEF;}
	.st5{clip-path:url(#SVGID_2_);}
	.st6{fill:#FFFFFF;}
	.st7{fill:#E2E2E2;}
	.st8{fill:#CECECE;}
	.st9{fill:none;stroke:#FFFFFF;stroke-miterlimit:10;}
	.st10{fill:url(#SVGID_3_);}
	.st11{clip-path:url(#SVGID_5_);fill:url(#SVGID_6_);}
	.st12{clip-path:url(#SVGID_5_);fill:#FFFFFF;}
	.st13{clip-path:url(#SVGID_5_);fill:url(#SVGID_7_);}
	.st14{clip-path:url(#SVGID_5_);}
	.st15{fill:#C4C4C4;}
	.st16{stroke:#FFFFFF;stroke-width:0.7804;stroke-miterlimit:10;}
	.st17{fill:#F9E0AF;stroke:#FFFFFF;stroke-width:0.7804;stroke-miterlimit:10;}
	.st18{fill:#E2C89A;stroke:#FFFFFF;stroke-width:0.7804;stroke-miterlimit:10;}
	.st19{fill:#FFFFFF;stroke:#FFFFFF;stroke-width:0.7804;stroke-miterlimit:10;}
	.st20{fill:#F9E0AF;}
	.st21{fill:#E2C89A;}
	.st22{fill:#E8E8E8;}
	.st23{fill:#E2E3E7;stroke:#FFFFFF;stroke-width:0.886;stroke-miterlimit:10;}
	.st24{fill:#D487D8;}
	.st25{fill:#F9E0AF;stroke:#FFFFFF;stroke-width:0.886;stroke-miterlimit:10;}
	.st26{fill:#FFFFFF;stroke:#FFFFFF;stroke-width:0.886;stroke-miterlimit:10;}
	.st27{clip-path:url(#SVGID_5_);fill:none;stroke:#AAAAAA;stroke-miterlimit:10;}
	.st28{clip-path:url(#SVGID_5_);fill:#E2E2E2;}
	.st29{clip-path:url(#SVGID_5_);fill:none;stroke:#FFFFFF;stroke-miterlimit:10;}
	.st30{fill:url(#SVGID_8_);}
	.st31{fill:none;stroke:#51C9D6;stroke-width:1.2;stroke-miterlimit:10;}
	.st32{fill:#FFFFFF;stroke:#D85092;stroke-miterlimit:10;}
	.st33{fill:url(#SVGID_9_);}
	.st34{fill:#41B5B0;}
	.st35{fill:#2A3B49;}
	.st36{fill:#F2F2F2;}
	.st37{fill:none;stroke:#41B5B0;stroke-width:3;stroke-linecap:round;stroke-miterlimit:10;}
	.st38{fill:#3DA39B;stroke:#FFFFFF;stroke-width:2;stroke-linecap:round;stroke-linejoin:round;stroke-miterlimit:10;}
	.st39{fill:#44BAB4;stroke:#FFFFFF;stroke-width:2;stroke-linecap:round;stroke-linejoin:round;stroke-miterlimit:10;}
	.st40{stroke:#FFFFFF;stroke-width:2;stroke-miterlimit:10;}
	.st41{fill:#BFA882;}
	.st42{fill:#A358A5;}
	.st43{fill:#2D776E;stroke:#FFFFFF;stroke-width:2;stroke-miterlimit:10;}
	.st44{fill:#F9E0AF;stroke:#FFFFFF;stroke-width:2;stroke-miterlimit:10;}
	.st45{fill:#E2C89A;stroke:#FFFFFF;stroke-width:2;stroke-miterlimit:10;}
	.st46{fill:#348C83;stroke:#FFFFFF;stroke-width:2;stroke-miterlimit:10;}
	.st47{fill:url(#SVGID_10_);}
	.st48{fill:url(#SVGID_11_);}
	.st49{fill:#E2E3E7;stroke:#FFFFFF;stroke-width:2;stroke-miterlimit:10;}
	.st50{fill:#44BAB4;stroke:#FFFFFF;stroke-width:2;stroke-miterlimit:10;}
	.st51{fill:#FEFEFE;stroke:#FFFFFF;stroke-width:2;stroke-miterlimit:10;}
	.st52{fill:#FFFFFF;stroke:#FFFFFF;stroke-width:2;stroke-miterlimit:10;}
	.st53{fill:url(#SVGID_12_);stroke:#FFFFFF;stroke-width:2;stroke-miterlimit:10;}
	.st54{fill:url(#SVGID_13_);stroke:#FFFFFF;stroke-width:2;stroke-miterlimit:10;}
	.st55{fill:none;stroke:#D85092;stroke-miterlimit:10;}
	.st56{fill:#77B3D4;}
	.st57{opacity:0.2;}
	.st58{fill:#231F20;}
	.st59{fill:#C75C5C;}
	.st60{fill:#4F5D73;}
	.st61{fill:#E0E0D1;}
	.st62{fill:#FF7D00;}
	.st63{fill:#59616A;}
	.st64{fill:#A8B6C0;}
	.st65{fill:#9DADB8;}
	.st66{fill:#B3BFC8;}
	.st67{fill:#E4E8EB;}
	.st68{fill:#BEC8D0;}
	.st69{fill:#C8D1D7;}
	.st70{fill:#FF50CE;}
	.st71{opacity:0.3;}
	.st72{fill:none;}
	.st73{fill:#010101;}
	.st74{fill:#FECD0E;}
	.st75{opacity:0.73;}
	.st76{clip-path:url(#SVGID_15_);fill:url(#SVGID_16_);}
	.st77{clip-path:url(#SVGID_18_);fill:url(#SVGID_19_);}
	.st78{opacity:0.7;}
	.st79{clip-path:url(#SVGID_21_);fill:url(#SVGID_22_);}
	.st80{fill:#FFE48D;}
	.st81{clip-path:url(#SVGID_24_);fill:url(#SVGID_25_);}
	.st82{clip-path:url(#SVGID_27_);fill:url(#SVGID_28_);}
	.st83{clip-path:url(#SVGID_30_);fill:url(#SVGID_31_);}
	.st84{fill:#DEB3E2;}
	.st85{fill:#95CE9B;}
	.st86{fill:none;stroke:#FFFFFF;stroke-width:4;stroke-linecap:round;stroke-linejoin:round;stroke-miterlimit:10;}
	.st87{fill:#F3CC1B;}
	.st88{fill:#EFEAF4;}
	.st89{fill:#757575;}
	.st90{fill:#C9A50D;}
	.st91{clip-path:url(#SVGID_33_);fill:url(#SVGID_34_);}
	.st92{fill:none;stroke:#BABABA;stroke-width:6.7359;stroke-miterlimit:10;}
	.st93{clip-path:url(#SVGID_36_);fill:url(#SVGID_37_);}
	.st94{clip-path:url(#SVGID_39_);fill:url(#SVGID_40_);}
	.st95{clip-path:url(#SVGID_42_);fill:url(#SVGID_43_);}
	.st96{fill:url(#SVGID_44_);}
	.st97{opacity:0.55;fill:url(#SVGID_45_);}
	.st98{fill:#E6E6E6;}
	.st99{fill:#FFB8B8;}
	.st100{fill:#575A89;}
	.st101{fill:#2F2E41;}
	.st102{fill:#CFCCE0;}
	.st103{opacity:0.2;enable-background:new    ;}
	.st104{fill:#A0616A;}
	.st105{fill:#CCCCCC;}
	.st106{fill:#F27092;}
	.st107{opacity:0.1;fill:#A358A5;enable-background:new    ;}
	.st108{opacity:0.1;}
	.st109{opacity:0.55;fill:url(#SVGID_46_);}
	.st110{fill:#3F3D56;}
	.st111{opacity:0.8;fill:#FA5959;enable-background:new    ;}
	.st112{opacity:0.8;fill:#FED253;enable-background:new    ;}
	.st113{opacity:0.8;fill:#8CCF4D;enable-background:new    ;}
	.st114{opacity:0.2;fill:#A358A5;enable-background:new    ;}
	.st115{fill:none;stroke:#3F3D56;stroke-width:0.3162;stroke-miterlimit:10;}
	.st116{opacity:0.1;enable-background:new    ;}
	.st117{fill:#46455B;}
	.st118{fill:#A8A8A8;}
	.st119{fill:url(#SVGID_47_);}
	.st120{fill:#65617D;}
	.st121{opacity:5.000000e-02;enable-background:new    ;}
	.st122{fill:#EE8E9E;}
	.st123{fill:#E3E8F4;}
	.st124{fill:#E6E8EC;}
	.st125{fill:#565387;}
	.st126{clip-path:url(#SVGID_49_);fill:#EFEFEF;}
	.st127{clip-path:url(#SVGID_49_);}
	.st128{fill:none;stroke:#FFFFFF;stroke-width:2.139;stroke-miterlimit:10;}
	.st129{fill:#F4E49F;}
	.st130{fill:#FFFFFF;stroke:#AFAFAF;stroke-width:0.6706;stroke-miterlimit:10;}
	.st131{fill:#80D5E8;}
	.st132{fill:#CCF9FF;}
	.st133{fill:#F5F9FC;}
	.st134{fill:#BDEAF2;}
	.st135{fill:#BD87D6;}
	.st136{clip-path:url(#SVGID_51_);fill:url(#SVGID_52_);}
	.st137{clip-path:url(#SVGID_54_);fill:url(#SVGID_55_);}
	.st138{clip-path:url(#SVGID_57_);fill:url(#SVGID_58_);}
	.st139{clip-path:url(#SVGID_60_);fill:url(#SVGID_61_);}
	.st140{clip-path:url(#SVGID_63_);fill:url(#SVGID_64_);}
	.st141{clip-path:url(#SVGID_66_);fill:url(#SVGID_67_);}
	.st142{clip-path:url(#SVGID_69_);fill:url(#SVGID_70_);}
	.st143{clip-path:url(#SVGID_72_);fill:url(#SVGID_73_);}
	.st144{clip-path:url(#SVGID_75_);fill:url(#SVGID_76_);}
	.st145{clip-path:url(#SVGID_78_);fill:url(#SVGID_79_);}
	.st146{fill:url(#SVGID_80_);}
	.st147{opacity:0.55;fill:url(#SVGID_81_);}
	.st148{opacity:0.55;fill:url(#SVGID_82_);}
	.st149{fill:url(#SVGID_83_);}
	.st150{clip-path:url(#SVGID_85_);fill:url(#SVGID_86_);}
	.st151{clip-path:url(#SVGID_85_);fill:url(#SVGID_87_);}
	.st152{clip-path:url(#SVGID_85_);fill:#FFFFFF;}
	.st153{clip-path:url(#SVGID_85_);fill:none;}
	.st154{clip-path:url(#SVGID_85_);fill:#BD87D6;}
	.st155{clip-path:url(#SVGID_85_);}
	.st156{fill:none;stroke:#E8C82A;stroke-width:7.1192;stroke-miterlimit:10;}
	.st157{fill:#F478BC;}
	.st158{fill:#F4A6D4;}
	.st159{clip-path:url(#SVGID_85_);fill:none;stroke:#AAAAAA;stroke-width:2.1388;stroke-miterlimit:10;}
	.st160{clip-path:url(#SVGID_85_);fill:#A8B6C0;}
	.st161{clip-path:url(#SVGID_85_);fill:#80D5E8;}
	.st162{clip-path:url(#SVGID_85_);fill:#CCF9FF;}
	.st163{clip-path:url(#SVGID_85_);fill:#F5F9FC;}
	.st164{clip-path:url(#SVGID_85_);fill:#BDEAF2;}
	.st165{fill:#FFFFFF;stroke:#AFAFAF;stroke-width:0.6727;stroke-miterlimit:10;}
	.st166{clip-path:url(#SVGID_89_);fill:url(#SVGID_90_);}
	.st167{clip-path:url(#SVGID_89_);fill:url(#SVGID_91_);}
	.st168{clip-path:url(#SVGID_89_);fill:#FFFFFF;}
	.st169{clip-path:url(#SVGID_89_);fill:none;}
	.st170{clip-path:url(#SVGID_89_);fill:#BD87D6;}
	.st171{clip-path:url(#SVGID_89_);}
	.st172{fill:none;stroke:#E8C82A;stroke-width:7.1418;stroke-miterlimit:10;}
	
		.st173{clip-path:url(#SVGID_89_);fill:none;stroke:#AAAAAA;stroke-width:2.1458;stroke-linecap:round;stroke-linejoin:round;stroke-miterlimit:10;}
	.st174{clip-path:url(#SVGID_89_);fill:#A8B6C0;}
	.st175{clip-path:url(#SVGID_89_);fill:#80D5E8;}
	.st176{clip-path:url(#SVGID_89_);fill:#CCF9FF;}
	.st177{clip-path:url(#SVGID_89_);fill:#F5F9FC;}
	.st178{clip-path:url(#SVGID_89_);fill:#BDEAF2;}
	.st179{clip-path:url(#SVGID_93_);fill:#EFEFEF;}
	.st180{clip-path:url(#SVGID_93_);}
	.st181{fill:none;stroke:#FFFFFF;stroke-width:2.1458;stroke-miterlimit:10;}
	.st182{clip-path:url(#SVGID_95_);fill:#EFEFEF;}
	.st183{clip-path:url(#SVGID_95_);}
	.st184{clip-path:url(#SVGID_97_);fill:url(#SVGID_98_);}
	.st185{clip-path:url(#SVGID_97_);fill:url(#SVGID_99_);}
	.st186{clip-path:url(#SVGID_97_);fill:#FFFFFF;}
	.st187{clip-path:url(#SVGID_97_);fill:none;}
	.st188{clip-path:url(#SVGID_97_);fill:#BD87D6;}
	.st189{clip-path:url(#SVGID_97_);}
	
		.st190{clip-path:url(#SVGID_97_);fill:none;stroke:#AAAAAA;stroke-width:2.1458;stroke-linecap:round;stroke-linejoin:round;stroke-miterlimit:10;}
	.st191{clip-path:url(#SVGID_97_);fill:#A8B6C0;}
	.st192{clip-path:url(#SVGID_97_);fill:#80D5E8;}
	.st193{clip-path:url(#SVGID_97_);fill:#CCF9FF;}
	.st194{clip-path:url(#SVGID_97_);fill:#F5F9FC;}
	.st195{clip-path:url(#SVGID_97_);fill:#BDEAF2;}
</style>
<g>
	<g>
		<g>
			<path class="st129" d="M145.6,120.3H40c-19.6,0-35.4-15.9-35.4-35.4v0c0-19.6,15.9-35.4,35.4-35.4h105.6
				c19.6,0,35.4,15.9,35.4,35.4v0C181,104.5,165.2,120.3,145.6,120.3z"/>
			<polygon class="st129" points="85.7,117.6 105.3,117.6 96.2,132.6 			"/>
		</g>
		<g>
			<path class="st7" d="M9,148.9v17.9h171.3v-17.9c0-4.1-3.3-7.4-7.4-7.4H16.4C12.3,141.5,9,144.8,9,148.9z M157.5,154.2
				c0-1.7,1.4-3.1,3.1-3.1h6.9c1.7,0,3.1,1.4,3.1,3.1c0,1.7-1.4,3.1-3.1,3.1h-6.9C158.9,157.3,157.5,155.9,157.5,154.2z
				 M136.9,154.2c0-1.7,1.4-3.1,3.1-3.1h6.9c1.7,0,3.1,1.4,3.1,3.1c0,1.7-1.4,3.1-3.1,3.1H140C138.3,157.3,136.9,155.9,136.9,154.2z
				 M116.4,154.2c0-1.7,1.4-3.1,3.1-3.1h6.9c1.7,0,3.1,1.4,3.1,3.1c0,1.7-1.4,3.1-3.1,3.1h-6.9C117.8,157.3,116.4,155.9,116.4,154.2
				z"/>
			<g>
				<polygon class="st7" points="121.1,189.4 30.3,189.4 75.7,213.8 				"/>
				<rect x="106.1" y="288.2" class="st7" width="20.9" height="8.4"/>
				<rect x="65.3" y="288.2" class="st7" width="20.9" height="8.4"/>
				<rect x="24.4" y="288.2" class="st7" width="20.9" height="8.4"/>
				<polygon class="st7" points="127,241.3 127,193.2 82.2,217.2 				"/>
				<polygon class="st7" points="24.4,193.2 24.4,241.3 69.2,217.2 				"/>
				<path class="st7" d="M9,173v132.6c0,4.1,3.3,7.4,7.4,7.4h126V173H9z M51.5,299.6c0,1.7-1.4,3.1-3.1,3.1H21.3
					c-1.7,0-3.1-1.4-3.1-3.1v-14.5c0-1.7,1.4-3.1,3.1-3.1h27.1c1.7,0,3.1,1.4,3.1,3.1V299.6z M18.2,272.8c0-1.7,1.4-3.1,3.1-3.1H42
					c1.7,0,3.1,1.4,3.1,3.1c0,1.7-1.4,3.1-3.1,3.1H21.3C19.6,275.8,18.2,274.5,18.2,272.8z M92.3,299.6c0,1.7-1.4,3.1-3.1,3.1H62.2
					c-1.7,0-3.1-1.4-3.1-3.1v-14.5c0-1.7,1.4-3.1,3.1-3.1h27.1c1.7,0,3.1,1.4,3.1,3.1V299.6z M133.2,299.6c0,1.7-1.4,3.1-3.1,3.1
					H103c-1.7,0-3.1-1.4-3.1-3.1v-14.5c0-1.7,1.4-3.1,3.1-3.1h27.1c1.7,0,3.1,1.4,3.1,3.1V299.6z M130.1,263.5H21.3
					c-1.7,0-3.1-1.4-3.1-3.1c0-1.7,1.4-3.1,3.1-3.1h108.8c1.7,0,3.1,1.4,3.1,3.1C133.2,262.2,131.8,263.5,130.1,263.5z M133.2,189.9
					v54.7v3.1c0,1.2-0.7,2.3-1.6,3c-0.5,0.3-1.2,0.5-1.9,0.5H21.7c-0.7,0-1.3-0.2-1.9-0.5c-1-0.6-1.6-1.7-1.6-3v-3.1v-54.7v-3.1
					c0-1.2,0.7-2.3,1.6-3c0.5-0.3,1.2-0.5,1.9-0.5h107.9c0.7,0,1.3,0.2,1.9,0.5c1,0.6,1.6,1.7,1.6,3V189.9z"/>
				<polygon class="st7" points="30.3,245.1 121.1,245.1 75.7,220.7 				"/>
			</g>
			<path class="st7" d="M148.6,173v140h24.3c4.1,0,7.4-3.3,7.4-7.4V173H148.6z M171.9,299.5c0,1.9-1.6,3.5-3.5,3.5h-7.9
				c-1.9,0-3.5-1.6-3.5-3.5v-7.9c0-1.9,1.6-3.5,3.5-3.5h7.9c1.9,0,3.5,1.6,3.5,3.5V299.5z M171.9,278.5c0,1.9-1.6,3.5-3.5,3.5h-7.9
				c-1.9,0-3.5-1.6-3.5-3.5v-7.9c0-1.9,1.6-3.5,3.5-3.5h7.9c1.9,0,3.5,1.6,3.5,3.5V278.5z M171.9,257.4c0,1.9-1.6,3.5-3.5,3.5h-7.9
				c-1.9,0-3.5-1.6-3.5-3.5v-7.9c0-1.9,1.6-3.5,3.5-3.5h7.9c1.9,0,3.5,1.6,3.5,3.5V257.4z M171.9,236.4c0,1.9-1.6,3.5-3.5,3.5h-7.9
				c-1.9,0-3.5-1.6-3.5-3.5v-7.9c0-1.9,1.6-3.5,3.5-3.5h7.9c1.9,0,3.5,1.6,3.5,3.5V236.4z M171.9,215.3c0,1.9-1.6,3.5-3.5,3.5h-7.9
				c-1.9,0-3.5-1.6-3.5-3.5v-7.9c0-1.9,1.6-3.5,3.5-3.5h7.9c1.9,0,3.5,1.6,3.5,3.5V215.3z M171.9,194.3c0,1.9-1.6,3.5-3.5,3.5h-7.9
				c-1.9,0-3.5-1.6-3.5-3.5v-7.9c0-1.9,1.6-3.5,3.5-3.5h7.9c1.9,0,3.5,1.6,3.5,3.5V194.3z"/>
		</g>
		<path class="st87" d="M71.9,99.7H43.6c-0.5,0-0.9-0.4-0.9-0.9V70.5c0-0.5,0.4-0.9,0.9-0.9h28.3c0.5,0,0.9,0.4,0.9,0.9v28.3
			C72.8,99.3,72.4,99.7,71.9,99.7z"/>
		<path class="st24" d="M108.3,99.7H80c-0.5,0-0.9-0.4-0.9-0.9V70.5c0-0.5,0.4-0.9,0.9-0.9h28.3c0.5,0,0.9,0.4,0.9,0.9v28.3
			C109.2,99.3,108.8,99.7,108.3,99.7z"/>
		<path class="st165" d="M144.7,99.7h-28.3c-0.5,0-0.9-0.4-0.9-0.9V70.5c0-0.5,0.4-0.9,0.9-0.9h28.3c0.5,0,0.9,0.4,0.9,0.9v28.3
			C145.6,99.3,145.2,99.7,144.7,99.7z"/>
		<g>
			<g>
				<circle class="st129" cx="236.5" cy="308.9" r="48.9"/>
				<g>
					<polygon class="st64" points="270.4,303.6 270.4,303.6 259.6,285.7 259.6,285.7 236.7,285.7 213.4,285.7 213.4,285.7 
						202.6,303.6 202.6,303.6 237,341.5 270.4,303.7 270.4,303.7 					"/>
					<polygon class="st131" points="219.9,303.6 202.6,303.6 202.6,303.6 237,341.5 					"/>
					<polygon class="st131" points="270.4,303.6 270.4,303.6 253.5,303.6 253.5,303.6 237,341.5 270.4,303.7 270.4,303.7 					"/>
					<polygon class="st132" points="253.5,303.6 270.4,303.6 259.6,285.7 259.6,285.7 					"/>
					<polygon class="st133" points="253.5,303.6 236.7,285.7 219.9,303.6 					"/>
					<polygon class="st132" points="219.9,303.6 213.4,285.7 213.4,285.7 202.6,303.6 					"/>
					<polygon class="st132" points="219.9,303.6 237,341.5 253.5,303.6 					"/>
					<polygon class="st134" points="236.7,285.7 213.4,285.7 219.9,303.6 					"/>
					<polygon class="st134" points="259.6,285.7 236.7,285.7 253.5,303.6 					"/>
				</g>
			</g>
			<polygon class="st129" points="215.8,270.3 199,290.6 138.9,210.7 			"/>
		</g>
	</g>
	<rect class="st72" width="290" height="417.9"/>
</g>
</svg>
