<?xml version="1.0" encoding="utf-8"?>
<!-- Generator: Adobe Illustrator 23.0.1, SVG Export Plug-In . SVG Version: 6.00 Build 0)  -->
<svg version="1.1" id="圖層_1" xmlns="http://www.w3.org/2000/svg" xmlns:xlink="http://www.w3.org/1999/xlink" x="0px" y="0px"
	 viewBox="0 0 290 417.9" style="enable-background:new 0 0 290 417.9;" xml:space="preserve">
<style type="text/css">
	.st0{fill:#8F8F8F;}
	.st1{fill:#444047;}
	.st2{fill:#E0E0E0;}
	.st3{fill:#F7F7F7;}
	.st4{clip-path:url(#SVGID_2_);fill:#EFEFEF;}
	.st5{clip-path:url(#SVGID_2_);}
	.st6{fill:#FFFFFF;}
	.st7{fill:#E2E2E2;}
	.st8{fill:#CECECE;}
	.st9{fill:none;stroke:#FFFFFF;stroke-miterlimit:10;}
	.st10{fill:url(#SVGID_3_);}
	.st11{clip-path:url(#SVGID_5_);fill:url(#SVGID_6_);}
	.st12{clip-path:url(#SVGID_5_);fill:#FFFFFF;}
	.st13{clip-path:url(#SVGID_5_);fill:url(#SVGID_7_);}
	.st14{clip-path:url(#SVGID_5_);}
	.st15{fill:#C4C4C4;}
	.st16{stroke:#FFFFFF;stroke-width:0.7804;stroke-miterlimit:10;}
	.st17{fill:#F9E0AF;stroke:#FFFFFF;stroke-width:0.7804;stroke-miterlimit:10;}
	.st18{fill:#E2C89A;stroke:#FFFFFF;stroke-width:0.7804;stroke-miterlimit:10;}
	.st19{fill:#FFFFFF;stroke:#FFFFFF;stroke-width:0.7804;stroke-miterlimit:10;}
	.st20{fill:#F9E0AF;}
	.st21{fill:#E2C89A;}
	.st22{fill:#E8E8E8;}
	.st23{fill:#E2E3E7;stroke:#FFFFFF;stroke-width:0.886;stroke-miterlimit:10;}
	.st24{fill:#D487D8;}
	.st25{fill:#F9E0AF;stroke:#FFFFFF;stroke-width:0.886;stroke-miterlimit:10;}
	.st26{fill:#FFFFFF;stroke:#FFFFFF;stroke-width:0.886;stroke-miterlimit:10;}
	.st27{clip-path:url(#SVGID_5_);fill:none;stroke:#AAAAAA;stroke-miterlimit:10;}
	.st28{clip-path:url(#SVGID_5_);fill:#E2E2E2;}
	.st29{clip-path:url(#SVGID_5_);fill:none;stroke:#FFFFFF;stroke-miterlimit:10;}
	.st30{fill:url(#SVGID_8_);}
	.st31{fill:none;stroke:#51C9D6;stroke-width:1.2;stroke-miterlimit:10;}
	.st32{fill:#FFFFFF;stroke:#D85092;stroke-miterlimit:10;}
	.st33{fill:url(#SVGID_9_);}
	.st34{fill:#41B5B0;}
	.st35{fill:#2A3B49;}
	.st36{fill:#F2F2F2;}
	.st37{fill:none;stroke:#41B5B0;stroke-width:3;stroke-linecap:round;stroke-miterlimit:10;}
	.st38{fill:#3DA39B;stroke:#FFFFFF;stroke-width:2;stroke-linecap:round;stroke-linejoin:round;stroke-miterlimit:10;}
	.st39{fill:#44BAB4;stroke:#FFFFFF;stroke-width:2;stroke-linecap:round;stroke-linejoin:round;stroke-miterlimit:10;}
	.st40{stroke:#FFFFFF;stroke-width:2;stroke-miterlimit:10;}
	.st41{fill:#BFA882;}
	.st42{fill:#A358A5;}
	.st43{fill:#2D776E;stroke:#FFFFFF;stroke-width:2;stroke-miterlimit:10;}
	.st44{fill:#F9E0AF;stroke:#FFFFFF;stroke-width:2;stroke-miterlimit:10;}
	.st45{fill:#E2C89A;stroke:#FFFFFF;stroke-width:2;stroke-miterlimit:10;}
	.st46{fill:#348C83;stroke:#FFFFFF;stroke-width:2;stroke-miterlimit:10;}
	.st47{fill:url(#SVGID_10_);}
	.st48{fill:url(#SVGID_11_);}
	.st49{fill:#E2E3E7;stroke:#FFFFFF;stroke-width:2;stroke-miterlimit:10;}
	.st50{fill:#44BAB4;stroke:#FFFFFF;stroke-width:2;stroke-miterlimit:10;}
	.st51{fill:#FEFEFE;stroke:#FFFFFF;stroke-width:2;stroke-miterlimit:10;}
	.st52{fill:#FFFFFF;stroke:#FFFFFF;stroke-width:2;stroke-miterlimit:10;}
	.st53{fill:url(#SVGID_12_);stroke:#FFFFFF;stroke-width:2;stroke-miterlimit:10;}
	.st54{fill:url(#SVGID_13_);stroke:#FFFFFF;stroke-width:2;stroke-miterlimit:10;}
	.st55{fill:none;stroke:#D85092;stroke-miterlimit:10;}
	.st56{fill:#77B3D4;}
	.st57{opacity:0.2;}
	.st58{fill:#231F20;}
	.st59{fill:#C75C5C;}
	.st60{fill:#4F5D73;}
	.st61{fill:#E0E0D1;}
	.st62{fill:#FF7D00;}
	.st63{fill:#59616A;}
	.st64{fill:#A8B6C0;}
	.st65{fill:#9DADB8;}
	.st66{fill:#B3BFC8;}
	.st67{fill:#E4E8EB;}
	.st68{fill:#BEC8D0;}
	.st69{fill:#C8D1D7;}
	.st70{fill:#FF50CE;}
	.st71{opacity:0.3;}
	.st72{fill:none;}
	.st73{fill:#010101;}
	.st74{fill:#FECD0E;}
	.st75{opacity:0.73;}
	.st76{clip-path:url(#SVGID_15_);fill:url(#SVGID_16_);}
	.st77{clip-path:url(#SVGID_18_);fill:url(#SVGID_19_);}
	.st78{opacity:0.7;}
	.st79{clip-path:url(#SVGID_21_);fill:url(#SVGID_22_);}
	.st80{fill:#FFE48D;}
	.st81{clip-path:url(#SVGID_24_);fill:url(#SVGID_25_);}
	.st82{clip-path:url(#SVGID_27_);fill:url(#SVGID_28_);}
	.st83{clip-path:url(#SVGID_30_);fill:url(#SVGID_31_);}
	.st84{fill:#DEB3E2;}
	.st85{fill:#95CE9B;}
	.st86{fill:none;stroke:#FFFFFF;stroke-width:4;stroke-linecap:round;stroke-linejoin:round;stroke-miterlimit:10;}
	.st87{fill:#F3CC1B;}
	.st88{fill:#EFEAF4;}
	.st89{fill:#757575;}
	.st90{fill:#C9A50D;}
	.st91{clip-path:url(#SVGID_33_);fill:url(#SVGID_34_);}
	.st92{fill:none;stroke:#BABABA;stroke-width:6.7359;stroke-miterlimit:10;}
	.st93{clip-path:url(#SVGID_36_);fill:url(#SVGID_37_);}
	.st94{clip-path:url(#SVGID_39_);fill:url(#SVGID_40_);}
	.st95{clip-path:url(#SVGID_42_);fill:url(#SVGID_43_);}
	.st96{fill:url(#SVGID_44_);}
	.st97{opacity:0.55;fill:url(#SVGID_45_);}
	.st98{fill:#E6E6E6;}
	.st99{fill:#FFB8B8;}
	.st100{fill:#575A89;}
	.st101{fill:#2F2E41;}
	.st102{fill:#CFCCE0;}
	.st103{opacity:0.2;enable-background:new    ;}
	.st104{fill:#A0616A;}
	.st105{fill:#CCCCCC;}
	.st106{fill:#F27092;}
	.st107{opacity:0.1;fill:#A358A5;enable-background:new    ;}
	.st108{opacity:0.1;}
	.st109{opacity:0.55;fill:url(#SVGID_46_);}
	.st110{fill:#3F3D56;}
	.st111{opacity:0.8;fill:#FA5959;enable-background:new    ;}
	.st112{opacity:0.8;fill:#FED253;enable-background:new    ;}
	.st113{opacity:0.8;fill:#8CCF4D;enable-background:new    ;}
	.st114{opacity:0.2;fill:#A358A5;enable-background:new    ;}
	.st115{fill:none;stroke:#3F3D56;stroke-width:0.3162;stroke-miterlimit:10;}
	.st116{opacity:0.1;enable-background:new    ;}
	.st117{fill:#46455B;}
	.st118{fill:#A8A8A8;}
	.st119{fill:url(#SVGID_47_);}
	.st120{fill:#65617D;}
	.st121{opacity:5.000000e-02;enable-background:new    ;}
	.st122{fill:#EE8E9E;}
	.st123{fill:#E3E8F4;}
	.st124{fill:#E6E8EC;}
	.st125{fill:#565387;}
	.st126{clip-path:url(#SVGID_49_);fill:#EFEFEF;}
	.st127{clip-path:url(#SVGID_49_);}
	.st128{fill:none;stroke:#FFFFFF;stroke-width:2.139;stroke-miterlimit:10;}
	.st129{fill:#F4E49F;}
	.st130{fill:#FFFFFF;stroke:#AFAFAF;stroke-width:0.6706;stroke-miterlimit:10;}
	.st131{fill:#80D5E8;}
	.st132{fill:#CCF9FF;}
	.st133{fill:#F5F9FC;}
	.st134{fill:#BDEAF2;}
	.st135{fill:#BD87D6;}
	.st136{clip-path:url(#SVGID_51_);fill:url(#SVGID_52_);}
	.st137{clip-path:url(#SVGID_54_);fill:url(#SVGID_55_);}
	.st138{clip-path:url(#SVGID_57_);fill:url(#SVGID_58_);}
	.st139{clip-path:url(#SVGID_60_);fill:url(#SVGID_61_);}
	.st140{clip-path:url(#SVGID_63_);fill:url(#SVGID_64_);}
	.st141{clip-path:url(#SVGID_66_);fill:url(#SVGID_67_);}
	.st142{clip-path:url(#SVGID_69_);fill:url(#SVGID_70_);}
	.st143{clip-path:url(#SVGID_72_);fill:url(#SVGID_73_);}
	.st144{clip-path:url(#SVGID_75_);fill:url(#SVGID_76_);}
	.st145{clip-path:url(#SVGID_78_);fill:url(#SVGID_79_);}
	.st146{fill:url(#SVGID_80_);}
	.st147{opacity:0.55;fill:url(#SVGID_81_);}
	.st148{opacity:0.55;fill:url(#SVGID_82_);}
	.st149{fill:url(#SVGID_83_);}
	.st150{clip-path:url(#SVGID_85_);fill:url(#SVGID_86_);}
	.st151{clip-path:url(#SVGID_85_);fill:url(#SVGID_87_);}
	.st152{clip-path:url(#SVGID_85_);fill:#FFFFFF;}
	.st153{clip-path:url(#SVGID_85_);fill:none;}
	.st154{clip-path:url(#SVGID_85_);fill:#BD87D6;}
	.st155{clip-path:url(#SVGID_85_);}
	.st156{fill:none;stroke:#E8C82A;stroke-width:7.1192;stroke-miterlimit:10;}
	.st157{fill:#F478BC;}
	.st158{fill:#F4A6D4;}
	.st159{clip-path:url(#SVGID_85_);fill:none;stroke:#AAAAAA;stroke-width:2.1388;stroke-miterlimit:10;}
	.st160{clip-path:url(#SVGID_85_);fill:#A8B6C0;}
	.st161{clip-path:url(#SVGID_85_);fill:#80D5E8;}
	.st162{clip-path:url(#SVGID_85_);fill:#CCF9FF;}
	.st163{clip-path:url(#SVGID_85_);fill:#F5F9FC;}
	.st164{clip-path:url(#SVGID_85_);fill:#BDEAF2;}
	.st165{fill:#FFFFFF;stroke:#AFAFAF;stroke-width:0.6727;stroke-miterlimit:10;}
	.st166{clip-path:url(#SVGID_89_);fill:url(#SVGID_90_);}
	.st167{clip-path:url(#SVGID_89_);fill:url(#SVGID_91_);}
	.st168{clip-path:url(#SVGID_89_);fill:#FFFFFF;}
	.st169{clip-path:url(#SVGID_89_);fill:none;}
	.st170{clip-path:url(#SVGID_89_);fill:#BD87D6;}
	.st171{clip-path:url(#SVGID_89_);}
	.st172{fill:none;stroke:#E8C82A;stroke-width:7.1418;stroke-miterlimit:10;}
	
		.st173{clip-path:url(#SVGID_89_);fill:none;stroke:#AAAAAA;stroke-width:2.1458;stroke-linecap:round;stroke-linejoin:round;stroke-miterlimit:10;}
	.st174{clip-path:url(#SVGID_89_);fill:#A8B6C0;}
	.st175{clip-path:url(#SVGID_89_);fill:#80D5E8;}
	.st176{clip-path:url(#SVGID_89_);fill:#CCF9FF;}
	.st177{clip-path:url(#SVGID_89_);fill:#F5F9FC;}
	.st178{clip-path:url(#SVGID_89_);fill:#BDEAF2;}
	.st179{clip-path:url(#SVGID_93_);fill:#EFEFEF;}
	.st180{clip-path:url(#SVGID_93_);}
	.st181{fill:none;stroke:#FFFFFF;stroke-width:2.1458;stroke-miterlimit:10;}
	.st182{clip-path:url(#SVGID_95_);fill:#EFEFEF;}
	.st183{clip-path:url(#SVGID_95_);}
	.st184{clip-path:url(#SVGID_97_);fill:url(#SVGID_98_);}
	.st185{clip-path:url(#SVGID_97_);fill:url(#SVGID_99_);}
	.st186{clip-path:url(#SVGID_97_);fill:#FFFFFF;}
	.st187{clip-path:url(#SVGID_97_);}
	.st188{font-family:'ArialRoundedMTBold';}
	.st189{font-size:11.2646px;}
	.st190{fill:#A18BA3;}
	.st191{clip-path:url(#SVGID_97_);fill:none;}
	.st192{clip-path:url(#SVGID_97_);fill:#BD87D6;}
	
		.st193{clip-path:url(#SVGID_97_);fill:none;stroke:#AAAAAA;stroke-width:2.1458;stroke-linecap:round;stroke-linejoin:round;stroke-miterlimit:10;}
	.st194{clip-path:url(#SVGID_97_);fill:#A8B6C0;}
	.st195{clip-path:url(#SVGID_97_);fill:#80D5E8;}
	.st196{clip-path:url(#SVGID_97_);fill:#CCF9FF;}
	.st197{clip-path:url(#SVGID_97_);fill:#F5F9FC;}
	.st198{clip-path:url(#SVGID_97_);fill:#BDEAF2;}
	.st199{letter-spacing:1;}
</style>
<g>
	<g>
		<g>
			<defs>
				<rect id="SVGID_96_" x="42.1" y="30.7" width="200.6" height="357.1"/>
			</defs>
			<clipPath id="SVGID_2_">
				<use xlink:href="#SVGID_96_"  style="overflow:visible;"/>
			</clipPath>
			<linearGradient id="SVGID_3_" gradientUnits="userSpaceOnUse" x1="42.1074" y1="209.2572" x2="242.7268" y2="209.2572">
				<stop  offset="0" style="stop-color:#FCFAF0"/>
				<stop  offset="1" style="stop-color:#F3E9F1"/>
			</linearGradient>
			<rect x="42.1" y="30.7" style="clip-path:url(#SVGID_2_);fill:url(#SVGID_3_);" width="200.6" height="357.1"/>
			<linearGradient id="SVGID_5_" gradientUnits="userSpaceOnUse" x1="42.1231" y1="52.1625" x2="242.7425" y2="52.1625">
				<stop  offset="0" style="stop-color:#A358A5"/>
				<stop  offset="1" style="stop-color:#F3CC1B"/>
			</linearGradient>
			<rect x="42.1" y="30.7" style="clip-path:url(#SVGID_2_);fill:url(#SVGID_5_);" width="200.6" height="42.9"/>
			<path style="clip-path:url(#SVGID_2_);fill:#FFFFFF;" d="M69.5,48H54.7c-0.7,0-1.2-0.5-1.2-1.2v0c0-0.7,0.5-1.2,1.2-1.2h14.7
				c0.7,0,1.2,0.5,1.2,1.2v0C70.7,47.5,70.2,48,69.5,48z"/>
			<path style="clip-path:url(#SVGID_2_);fill:#FFFFFF;" d="M69.5,53.4H54.7c-0.7,0-1.2-0.5-1.2-1.2l0,0c0-0.7,0.5-1.2,1.2-1.2h14.7
				c0.7,0,1.2,0.5,1.2,1.2l0,0C70.7,52.8,70.2,53.4,69.5,53.4z"/>
			<path style="clip-path:url(#SVGID_2_);fill:#FFFFFF;" d="M69.5,58.8H54.7c-0.7,0-1.2-0.5-1.2-1.2v0c0-0.7,0.5-1.2,1.2-1.2h14.7
				c0.7,0,1.2,0.5,1.2,1.2v0C70.7,58.2,70.2,58.8,69.5,58.8z"/>
			<g class="st5">
				<rect x="66.9" y="209.8" class="st72" width="151.3" height="13.1"/>
				<text transform="matrix(1 0 0 1 66.8629 219.5777)" class="st24 st188 st189">RING</text>
			</g>
			<g class="st5">
				<rect x="66.9" y="223.3" class="st72" width="151.3" height="13.1"/>
				<text transform="matrix(1 0 0 1 66.8629 232.9869)" class="st190 st188 st189">$ 150000</text>
			</g>
			<g class="st5">
				<rect x="66.9" y="380.4" class="st72" width="151.3" height="13.1"/>
				<text transform="matrix(1 0 0 1 66.8629 390.1568)" class="st190 st188 st189">$ 250000</text>
			</g>
			<rect x="66.9" y="381.3" style="clip-path:url(#SVGID_2_);fill:none;" width="151.3" height="13.1"/>
			<g class="st5">
				<rect x="66.9" y="367.5" class="st72" width="151.3" height="13.1"/>
				<text transform="matrix(1 0 0 1 66.8629 377.2818)" class="st24 st188 st189">DIAMOND</text>
			</g>
			<rect x="66.8" y="255.4" style="clip-path:url(#SVGID_2_);fill:#BD87D6;" width="151.3" height="102.6"/>
			<g class="st5">
				<g>
					<rect x="68.4" y="97.8" class="st129" width="151.3" height="102.6"/>
				</g>
			</g>
			<g class="st5">
				<circle class="st172" cx="144" cy="158.3" r="22.9"/>
				<g>
					<polygon class="st157" points="157.9,119.8 157.9,119.8 153.5,112.5 153.5,112.5 144.1,112.5 134.6,112.5 134.6,112.5 
						130.1,119.8 130.1,119.8 144.2,135.4 157.9,119.9 157.9,119.9 					"/>
					<polygon class="st157" points="137.2,119.8 130.1,119.8 130.1,119.8 144.2,135.4 					"/>
					<polygon class="st158" points="157.9,119.8 157.9,119.8 151,119.8 151,119.8 144.2,135.4 157.9,119.9 157.9,119.9 					"/>
					<polygon class="st158" points="151,119.8 157.9,119.8 153.5,112.5 153.5,112.5 					"/>
					<polygon class="st158" points="151,119.8 144.1,112.5 137.2,119.8 					"/>
					<polygon class="st157" points="137.2,119.8 134.6,112.5 134.6,112.5 130.1,119.8 					"/>
					<polygon class="st158" points="137.2,119.8 144.2,135.4 151,119.8 					"/>
					<polygon class="st158" points="144.1,112.5 134.6,112.5 137.2,119.8 					"/>
					<polygon class="st158" points="153.5,112.5 144.1,112.5 151,119.8 					"/>
				</g>
			</g>
			
				<line style="clip-path:url(#SVGID_2_);fill:none;stroke:#AAAAAA;stroke-width:2.1458;stroke-linecap:round;stroke-linejoin:round;stroke-miterlimit:10;" x1="66.9" y1="239.9" x2="218.2" y2="239.9"/>
			<polygon style="clip-path:url(#SVGID_2_);fill:#A8B6C0;" points="183.4,298 183.4,298 170.7,277 170.7,277 143.9,277 116.5,277 
				116.5,277 103.8,298 103.8,298 144.2,342.5 183.4,298.1 183.5,298.1 			"/>
			<polygon style="clip-path:url(#SVGID_2_);fill:#80D5E8;" points="124.1,298 103.8,298 103.8,298 144.2,342.5 			"/>
			<polygon style="clip-path:url(#SVGID_2_);fill:#80D5E8;" points="183.4,298 183.4,298 163.6,298 163.6,298 144.2,342.5 
				183.4,298.1 183.5,298.1 			"/>
			<polygon style="clip-path:url(#SVGID_2_);fill:#CCF9FF;" points="163.6,298 183.4,298 170.7,277 170.7,277 			"/>
			<polygon style="clip-path:url(#SVGID_2_);fill:#F5F9FC;" points="163.6,298 143.9,277 124.1,298 			"/>
			<polygon style="clip-path:url(#SVGID_2_);fill:#CCF9FF;" points="124.1,298 116.5,277 116.5,277 103.8,298 			"/>
			<polygon style="clip-path:url(#SVGID_2_);fill:#CCF9FF;" points="124.1,298 144.2,342.5 163.6,298 			"/>
			<polygon style="clip-path:url(#SVGID_2_);fill:#BDEAF2;" points="143.9,277 116.5,277 124.1,298 			"/>
			<polygon style="clip-path:url(#SVGID_2_);fill:#BDEAF2;" points="170.7,277 143.9,277 163.6,298 			"/>
			<g class="st5">
				<text transform="matrix(1 0 0 1 123.9274 56.754)" class="st6 st188 st189 st199">SHOP</text>
			</g>
		</g>
		<path class="st157" d="M273.4,368.7c-2.1-2.4-3.3-6.7-3.6-8.6c-0.5,1.9-2.1,6-4.5,8.2c-2.9,2.7-6,4.3-7.9,4.1c2,0.6,4.8,3,7.3,6.5
			c2.3,3.3,3.7,6.2,3.7,8.3c0.2-2.1,1.9-4.9,4.6-7.9c2.8-3.2,5.9-5.3,8-5.7C279,373.7,276,371.8,273.4,368.7z"/>
		<path class="st87" d="M257.8,403.1c-1.7-1.9-2.7-5.4-2.9-6.9c-0.4,1.5-1.7,4.8-3.6,6.5c-2.3,2.2-4.8,3.4-6.3,3.3
			c1.6,0.5,3.9,2.4,5.8,5.2c1.9,2.6,3,5,3,6.7c0.2-1.7,1.5-3.9,3.7-6.3c2.2-2.5,4.7-4.3,6.4-4.5
			C262.3,407.1,259.9,405.5,257.8,403.1z"/>
		<path class="st157" d="M37.5,8.6c-2.1-2.4-3.3-6.7-3.6-8.6c-0.5,1.9-2.1,6-4.5,8.2c-2.9,2.7-6,4.3-7.9,4.1c2,0.6,4.8,3,7.3,6.5
			c2.3,3.3,3.7,6.2,3.7,8.3c0.2-2.1,1.9-4.9,4.6-7.9c2.8-3.2,5.9-5.3,8-5.7C43.1,13.5,40.1,11.6,37.5,8.6z"/>
		<path class="st87" d="M22,43c-1.7-1.9-2.7-5.4-2.9-6.9c-0.4,1.5-1.7,4.8-3.6,6.5c-2.3,2.2-4.8,3.4-6.3,3.3
			c1.6,0.5,3.9,2.4,5.8,5.2c1.9,2.6,3,5,3,6.7c0.2-1.7,1.5-3.9,3.7-6.3c2.2-2.5,4.7-4.3,6.4-4.5C26.5,46.9,24.1,45.4,22,43z"/>
	</g>
	<rect class="st72" width="290" height="417.9"/>
</g>
</svg>
